<svg width="237" height="70" viewBox="0 0 237 70" fill="none" xmlns="http://www.w3.org/2000/svg">
<path d="M8.84039 46.9566C9.84297 48.2275 10.8088 49.5291 11.8727 50.7481C12.0965 51.0023 12.6729 51.0268 13.0837 51.0268C18.6945 51.0451 24.3053 51.039 29.9191 51.039C37.6209 51.039 45.3257 51.0421 53.0275 51.036C54.1373 51.036 55.0909 51.2565 55.5998 52.3866C56.0291 53.336 55.9003 54.1384 55.0939 54.9561C52.8711 57.2071 50.3846 59.109 47.5976 60.6158C44.4549 62.3125 41.1253 63.51 37.6086 64.0827C34.5886 64.5758 31.541 64.6279 28.4781 64.2603C25.6757 63.9234 23.0053 63.1884 20.3777 62.2084C19.3445 61.8225 18.7681 61.1242 18.5749 60.086C18.44 59.3571 19.0103 58.2668 19.8688 57.9697C20.4912 57.7523 21.3282 57.6696 21.9168 57.9085C25.6849 59.4245 29.5818 60.1289 33.6289 59.9206C38.0807 59.6909 42.2474 58.4505 46.1075 56.2148C46.2577 56.126 46.408 56.0342 46.5551 55.9392C46.6318 55.8902 46.7023 55.8259 46.9384 55.6421C46.4724 55.6207 46.1842 55.5962 45.896 55.5962C34.469 55.5962 23.0421 55.5839 11.6151 55.6115C10.4991 55.6115 9.68354 55.2287 8.95383 54.4293C6.50411 51.7526 4.49895 48.7911 3.01194 45.4804C2.2945 43.8847 3.26335 42.2493 5.06309 42.087C5.31757 42.0656 5.57205 42.0778 5.82652 42.0778C22.7876 42.0778 39.7517 42.0778 56.7128 42.0778C58.0158 42.0778 57.9698 42.0625 58.4205 40.7731C59.2851 38.3108 59.6377 35.7719 59.7052 33.1778C59.7696 30.6971 59.5795 28.2348 58.9448 25.8459C56.9182 18.2292 52.4357 12.4347 45.6139 8.51459C42.9373 6.97409 40.0062 6.02468 36.9371 5.51322C33.1353 4.87926 29.3641 4.98952 25.6328 5.91443C21.9659 6.82402 18.5994 8.40739 15.607 10.735C13.234 12.5817 11.1705 14.7164 9.50878 17.2308C8.00338 19.5094 6.84443 21.9442 6.03194 24.5566C5.04163 27.7386 4.72277 30.985 4.84847 34.2957C4.86993 34.9052 4.93738 35.533 4.83314 36.1271C4.62465 37.3032 3.3492 37.8545 2.60417 37.8116C1.47588 37.7442 0.430378 36.7672 0.408916 35.6586C0.365992 33.4443 0.212693 31.2055 0.448774 29.0157C0.887211 24.9517 2.10748 21.0989 4.05438 17.4636C6.11473 13.6169 8.83733 10.3399 12.2069 7.61112C15.3035 5.10283 18.7711 3.25607 22.5883 2.03409C26.2092 0.864171 29.8946 0.374152 33.6627 0.527283C37.1119 0.665101 40.4416 1.39094 43.6854 2.61905C47.7264 4.1473 51.2921 6.40138 54.3949 9.36293C57.7062 12.5266 60.2479 16.2293 61.9679 20.5078C63.7155 24.8506 64.5004 29.3434 64.2919 33.9956C64.1723 36.6539 63.8044 39.2908 62.8724 41.8144C62.4308 43.0058 62.0537 44.2216 61.5754 45.3977C61.232 46.246 60.4993 46.638 59.5979 46.7024C59.3189 46.7238 59.0368 46.7085 58.7578 46.7085C42.4835 46.7085 26.2123 46.7085 9.93802 46.7085H9.03048C8.96916 46.7912 8.90478 46.8739 8.84346 46.9566H8.84039Z" fill="#FFB401"/>
<path d="M9.27764 32.4339C9.22245 27.8981 10.4856 23.7667 12.9722 19.9568C15.7653 15.6752 19.5364 12.7014 24.2979 10.8822C28.0568 9.44586 31.9353 9.00791 35.8598 9.68781C42.6203 10.8577 47.9735 14.294 51.7508 20.0946C53.1918 22.3058 54.1913 24.6977 54.8076 27.2335C55.4913 30.0481 55.6017 32.9239 55.1847 35.7997C55.013 36.9788 53.7161 37.9772 52.6859 37.7996C51.34 37.5668 50.5305 36.4673 50.6746 35.1198C50.9598 32.4676 50.9169 29.8153 50.089 27.2672C48.1513 21.3196 44.3188 17.0871 38.3371 15.0535C31.7391 12.8117 25.6899 14.0275 20.3152 18.4316C17.8134 20.4805 16.0535 23.0868 14.9191 26.1218C14.0238 28.5198 13.6344 30.9944 13.7448 33.5425C13.7693 34.1183 13.9563 34.688 13.9839 35.2637C14.0453 36.5102 13.3707 37.3708 12.1045 37.7506C11.3288 37.9833 10.2404 37.5209 9.7498 36.6021C9.47692 36.0876 9.35122 35.4628 9.29603 34.8748C9.22245 34.0662 9.27764 33.2455 9.27764 32.4308V32.4339Z" fill="#FFB401"/>
<path d="M18.0335 32.4491C18.0488 26.477 22.1757 20.9612 27.7251 19.1114C34.3139 16.9155 41.2952 19.6474 44.7015 25.6011C46.351 28.48 46.8262 31.6375 46.2958 34.9115C46.1057 36.0783 45.8451 37.2482 44.4256 37.6647C43.1409 38.0415 41.6232 37.0982 41.5742 35.7476C41.5558 35.2024 41.7244 34.6511 41.8011 34.0999C42.356 30.143 40.7065 26.3514 37.1806 24.2566C32.2168 21.3073 26.1492 23.396 23.727 28.2013C22.8532 29.9316 22.4271 31.7508 22.7919 33.7385C22.9606 34.6573 23.3346 35.6495 22.7674 36.5959C22.3412 37.3064 21.3202 37.8944 20.6212 37.7995C19.5757 37.6586 18.6375 36.8348 18.4719 35.8211C18.288 34.7001 18.1745 33.57 18.0304 32.443L18.0335 32.4491Z" fill="#FFB401"/>
<path d="M92.6277 31.0313C85.2952 31.0313 79.6277 25.3638 79.6277 17.748C79.6277 10.1321 85.2952 4.53541 92.6277 4.53541C99.9955 4.53541 105.699 10.1321 105.699 17.748C105.699 25.3638 99.9955 31.0313 92.6277 31.0313ZM92.6277 26.2139C97.3034 26.2139 100.137 22.4237 100.137 17.748C100.137 13.0722 97.3034 9.35285 92.6277 9.35285C87.9873 9.35285 85.1535 13.0722 85.1535 17.748C85.1535 22.4237 87.9873 26.2139 92.6277 26.2139ZM113.91 20.1921V30.5H108.987V11.5845H113.521V14.2766C114.902 12.3992 116.85 11.2302 119.33 11.2302C123.12 11.2302 125.741 13.7098 125.741 18.2793V30.5H120.853V19.9441C120.853 17.1458 119.755 15.5872 117.523 15.5872C115.575 15.5872 113.91 17.1458 113.91 20.1921ZM138.202 30.8188C132.535 30.8188 128.744 26.8869 128.744 20.9714C128.744 15.3392 132.676 11.2302 138.131 11.2302C144.118 11.2302 148.085 16.0831 147.199 22.2466H133.774C134.093 25.3283 135.581 27.0286 138.096 27.0286C140.257 27.0286 141.709 25.9659 142.276 24.0886H147.164C146.101 28.3747 142.807 30.8188 138.202 30.8188ZM138.025 14.8433C135.723 14.8433 134.27 16.3311 133.845 19.1294H141.992C141.851 16.5082 140.363 14.8433 138.025 14.8433ZM162.187 31.0313C155.031 31.0313 149.435 25.2221 149.435 17.748C149.435 10.3093 155.031 4.53541 162.187 4.53541C168.881 4.53541 174.124 8.99863 175.01 15.5163H169.307C168.704 11.8678 165.871 9.35285 162.257 9.35285C157.901 9.35285 154.96 12.7888 154.96 17.748C154.96 22.7425 157.901 26.2139 162.257 26.2139C165.871 26.2139 168.669 23.6635 169.307 20.015H175.01C174.124 26.6035 168.881 31.0313 162.187 31.0313ZM183.303 30.5H178.344V5.06675H183.303V30.5ZM193.421 7.19209C193.421 8.85694 192.075 10.0967 190.127 10.0967C188.214 10.0967 186.868 8.85694 186.868 7.19209C186.868 5.45639 188.214 4.21661 190.127 4.21661C192.075 4.21661 193.421 5.45639 193.421 7.19209ZM192.642 30.5H187.718V11.5845H192.642V30.5ZM204.994 30.8542C199.539 30.8542 195.784 26.8161 195.784 21.0422C195.784 15.3747 199.68 11.2302 204.994 11.2302C209.917 11.2302 213.566 14.5599 214.168 19.6608H208.996C208.749 17.1458 207.225 15.5872 204.994 15.5872C202.443 15.5872 200.814 17.6771 200.814 21.0422C200.814 24.4428 202.408 26.4973 204.994 26.4973C207.261 26.4973 208.713 25.0095 208.996 22.4237H214.168C213.601 27.6308 210.059 30.8542 204.994 30.8542ZM222.253 30.5H217.329V5.06675H222.253V19.5899L229.16 11.5845H234.828L227 20.6526L235.749 30.5H229.479L222.253 21.7153V30.5ZM100.633 54.6008C100.633 59.4537 96.7367 62.8542 90.3606 62.8542C83.9492 62.8542 79.9465 59.4183 79.5568 54.0341H85.0119C85.1535 56.8324 86.9601 58.639 90.2544 58.639C92.9819 58.639 94.9301 57.4346 94.9301 55.3801C94.9301 53.7861 93.6903 52.8297 91.5296 52.4046L87.3497 51.5899C83.4887 50.846 80.5132 48.7561 80.5132 44.5409C80.5132 40.0068 84.5159 36.7479 90.0064 36.7479C95.7094 36.7479 99.8892 40.0776 100.243 45.391H94.7884C94.6113 42.7343 92.7694 40.9278 90.0773 40.9278C87.456 40.9278 85.9683 42.4155 85.9683 44.1866C85.9683 45.9223 87.5623 46.6662 89.4042 47.0204L93.7612 47.906C98.2244 48.7915 100.633 50.846 100.633 54.6008ZM116.077 57.718V62.0041C114.873 62.6063 113.739 62.8542 112.287 62.8542C108.39 62.8542 105.946 60.6226 105.946 56.3719V47.7997H102.121V43.5845H105.946V37.9877H110.834V43.5845H116.254V47.7997H110.834V55.2384C110.834 57.4346 111.826 58.3202 113.597 58.3202C114.518 58.3202 115.369 58.1076 116.077 57.718ZM130.525 62.5V60.1621C129.285 61.9332 127.408 62.8542 124.822 62.8542C120.89 62.8542 118.269 60.5518 118.269 57.0095C118.269 53.3256 121.244 51.342 126.77 51.342C127.833 51.342 128.754 51.4128 129.923 51.5545V50.421C129.923 48.2956 128.718 47.0559 126.664 47.0559C124.538 47.0559 123.263 48.2956 123.086 50.421H118.658C118.942 46.064 122.094 43.2302 126.664 43.2302C131.623 43.2302 134.528 45.9578 134.528 50.5981V62.5H130.525ZM122.909 56.8678C122.909 58.4619 124.043 59.4537 125.885 59.4537C128.4 59.4537 129.923 58.0722 129.923 55.876V54.53C128.754 54.3529 127.939 54.282 127.089 54.282C124.291 54.282 122.909 55.1676 122.909 56.8678ZM155.151 43.5845L145.942 69.3365H140.593L143.285 62.2875L135.846 43.5845H141.16L145.906 56.549L150.228 43.5845H155.151ZM172.803 56.4428C172.803 60.4101 169.792 62.8542 164.408 62.8542C159.024 62.8542 156.013 60.2684 155.623 56.0531H160.334C160.37 58.0014 162.035 59.2411 164.479 59.2411C166.392 59.2411 167.844 58.639 167.844 57.2929C167.844 56.0886 167.065 55.5926 165.258 55.2384L161.858 54.6008C158.457 53.9986 156.403 52.1212 156.403 49.1812C156.403 45.6744 159.413 43.2302 164.125 43.2302C168.871 43.2302 172.13 45.7452 172.484 49.8188H167.773C167.596 47.9768 166.215 46.8433 164.125 46.8433C162.318 46.8433 161.114 47.5163 161.114 48.7207C161.114 49.8542 161.893 50.3147 163.593 50.6335L167.242 51.3065C170.926 52.015 172.803 53.7153 172.803 56.4428Z" fill="white"/>
</svg>
