<svg width="347" height="204" viewBox="0 0 347 204" fill="none" xmlns="http://www.w3.org/2000/svg">
<path d="M1.64809 11.7097C1.64809 9.6457 3.44809 7.8937 5.84809 8.08569V9.3817C4.50409 9.3337 3.54409 9.9817 3.32809 11.0377C3.52009 10.9657 3.71209 10.9417 3.88009 10.9417C4.79209 10.9417 5.44009 11.6137 5.44009 12.4537C5.44009 13.3897 4.72009 14.0377 3.66409 14.0377C2.39209 14.0377 1.64809 13.1017 1.64809 11.7097ZM6.76009 11.7097C6.76009 9.6457 8.56009 7.8937 10.9601 8.08569V9.3817C9.61609 9.3337 8.65609 9.9817 8.44009 11.0377C8.63209 10.9657 8.82409 10.9417 8.99209 10.9417C9.88009 10.9417 10.5521 11.6137 10.5521 12.4537C10.5521 13.3897 9.80809 14.0377 8.77609 14.0377C7.50409 14.0377 6.76009 13.1017 6.76009 11.7097ZM21.1222 18.9577V25.4137H18.4582V18.9577L12.2662 8.18169H15.1462L19.8742 16.4857L24.6502 8.18169H27.3382L21.1222 18.9577ZM32.2541 25.6537C28.6541 25.6537 26.0141 22.8217 26.0141 19.0537C26.0141 15.2857 28.6541 12.4537 32.2541 12.4537C35.8541 12.4537 38.4941 15.2857 38.4941 19.0537C38.4941 22.8217 35.8541 25.6537 32.2541 25.6537ZM32.2541 23.5177C34.3421 23.5177 35.9981 21.8377 35.9981 19.0537C35.9981 16.2697 34.3421 14.6137 32.2541 14.6137C30.1661 14.6137 28.5341 16.2697 28.5341 19.0537C28.5341 21.8377 30.1661 23.5177 32.2541 23.5177ZM48.9092 20.1817V12.6937H51.3332V25.4137H49.0772V23.3977C48.4052 24.7177 46.9172 25.6537 45.1892 25.6537C42.6212 25.6537 40.8452 24.1417 40.8452 20.8777V12.6937H43.2692V20.3977C43.2692 22.6057 44.3732 23.5177 45.9572 23.5177C47.5892 23.5177 48.9092 22.1737 48.9092 20.1817ZM57.1235 18.9097V25.4137H54.6995V12.6937H56.9555V15.3817C57.8435 13.6297 59.7635 12.5257 61.8515 12.5257V15.0457C59.1155 14.9017 57.1235 16.1017 57.1235 18.9097ZM78.8655 21.6217C78.8655 24.1177 76.9215 25.6537 73.5375 25.6537C70.1775 25.6537 68.1855 23.9977 67.9455 21.2617H70.2735C70.3695 22.8457 71.6415 23.8297 73.5855 23.8297C75.2895 23.8297 76.4175 23.2297 76.4175 22.0297C76.4175 20.9737 75.7695 20.5177 74.1855 20.2057L72.1215 19.8217C69.7695 19.3657 68.4495 18.1657 68.4495 16.2457C68.4495 14.0137 70.3935 12.4537 73.3455 12.4537C76.3935 12.4537 78.4575 14.0857 78.6735 16.7017H76.3455C76.2015 15.1657 75.0735 14.2777 73.3695 14.2777C71.8335 14.2777 70.8015 14.9257 70.8015 16.0297C70.8015 17.0617 71.4495 17.5417 72.9855 17.8297L75.1455 18.2377C77.6655 18.6937 78.8655 19.7977 78.8655 21.6217ZM88.524 23.0617V25.1977C87.78 25.5337 87.132 25.6537 86.364 25.6537C84.012 25.6537 82.38 24.3817 82.38 21.5737V14.7577H79.572V12.6937H82.38V8.9257H84.804V12.6937H88.644V14.7577H84.804V21.0217C84.804 22.7737 85.644 23.3977 86.94 23.3977C87.516 23.3977 88.02 23.3017 88.524 23.0617ZM98.6613 25.4137V23.4457C97.8693 24.8617 96.4533 25.6537 94.5813 25.6537C91.9413 25.6537 90.2133 24.1417 90.2133 21.8137C90.2133 19.3177 92.2053 18.0217 95.9973 18.0217C96.7413 18.0217 97.3413 18.0457 98.3733 18.1657V17.2297C98.3733 15.4057 97.3893 14.3737 95.7093 14.3737C93.9333 14.3737 92.8533 15.4297 92.7813 17.2057H90.5733C90.6933 14.3497 92.7333 12.4537 95.7093 12.4537C98.8533 12.4537 100.677 14.2297 100.677 17.2537V25.4137H98.6613ZM92.5173 21.7417C92.5173 23.0617 93.5013 23.9257 95.0613 23.9257C97.1013 23.9257 98.3733 22.6537 98.3733 20.7097V19.6777C97.4373 19.5577 96.7653 19.5337 96.1413 19.5337C93.7173 19.5337 92.5173 20.2537 92.5173 21.7417ZM114.08 12.6937L107.72 30.0457H105.08L106.904 25.2457L101.888 12.6937H104.504L108.2 22.3897L111.632 12.6937H114.08ZM123.769 9.74169C123.769 10.6537 123.049 11.3497 122.017 11.3497C120.985 11.3497 120.241 10.6537 120.241 9.74169C120.241 8.8057 120.985 8.1337 122.017 8.1337C123.049 8.1337 123.769 8.8057 123.769 9.74169ZM123.241 25.4137H120.817V12.6937H123.241V25.4137ZM136.686 21.6217C136.686 24.1177 134.742 25.6537 131.358 25.6537C127.998 25.6537 126.006 23.9977 125.766 21.2617H128.094C128.19 22.8457 129.462 23.8297 131.406 23.8297C133.11 23.8297 134.238 23.2297 134.238 22.0297C134.238 20.9737 133.59 20.5177 132.006 20.2057L129.942 19.8217C127.59 19.3657 126.27 18.1657 126.27 16.2457C126.27 14.0137 128.214 12.4537 131.166 12.4537C134.214 12.4537 136.278 14.0857 136.494 16.7017H134.166C134.022 15.1657 132.894 14.2777 131.19 14.2777C129.654 14.2777 128.622 14.9257 128.622 16.0297C128.622 17.0617 129.27 17.5417 130.806 17.8297L132.966 18.2377C135.486 18.6937 136.686 19.7977 136.686 21.6217ZM149.676 25.6537C146.076 25.6537 143.436 22.8217 143.436 19.0537C143.436 15.2857 146.076 12.4537 149.676 12.4537C153.276 12.4537 155.916 15.2857 155.916 19.0537C155.916 22.8217 153.276 25.6537 149.676 25.6537ZM149.676 23.5177C151.764 23.5177 153.42 21.8377 153.42 19.0537C153.42 16.2697 151.764 14.6137 149.676 14.6137C147.588 14.6137 145.956 16.2697 145.956 19.0537C145.956 21.8377 147.588 23.5177 149.676 23.5177ZM166.331 20.1817V12.6937H168.755V25.4137H166.499V23.3977C165.827 24.7177 164.339 25.6537 162.611 25.6537C160.043 25.6537 158.267 24.1417 158.267 20.8777V12.6937H160.691V20.3977C160.691 22.6057 161.795 23.5177 163.379 23.5177C165.011 23.5177 166.331 22.1737 166.331 20.1817ZM174.545 18.9097V25.4137H172.121V12.6937H174.377V15.3817C175.265 13.6297 177.185 12.5257 179.273 12.5257V15.0457C176.537 14.9017 174.545 16.1017 174.545 18.9097ZM188.631 18.9097V25.4137H186.207V12.6937H188.463V15.3817C189.351 13.6297 191.271 12.5257 193.359 12.5257V15.0457C190.623 14.9017 188.631 16.1017 188.631 18.9097ZM200.463 25.6537C196.791 25.6537 194.319 22.9897 194.319 18.9817C194.319 15.2137 196.887 12.4537 200.391 12.4537C204.183 12.4537 206.703 15.5257 206.271 19.6537H196.791C196.983 22.2457 198.279 23.7577 200.415 23.7577C202.215 23.7577 203.463 22.7737 203.871 21.1177H206.271C205.647 23.9497 203.463 25.6537 200.463 25.6537ZM200.343 14.2777C198.399 14.2777 197.079 15.6697 196.815 18.0457H203.703C203.583 15.6937 202.311 14.2777 200.343 14.2777ZM218.928 21.6217C218.928 24.1177 216.984 25.6537 213.6 25.6537C210.24 25.6537 208.248 23.9977 208.008 21.2617H210.336C210.432 22.8457 211.704 23.8297 213.648 23.8297C215.352 23.8297 216.48 23.2297 216.48 22.0297C216.48 20.9737 215.832 20.5177 214.248 20.2057L212.184 19.8217C209.832 19.3657 208.512 18.1657 208.512 16.2457C208.512 14.0137 210.456 12.4537 213.408 12.4537C216.456 12.4537 218.52 14.0857 218.736 16.7017H216.408C216.264 15.1657 215.136 14.2777 213.432 14.2777C211.896 14.2777 210.864 14.9257 210.864 16.0297C210.864 17.0617 211.512 17.5417 213.048 17.8297L215.208 18.2377C217.728 18.6937 218.928 19.7977 218.928 21.6217ZM233.719 19.0537C233.719 22.8937 231.511 25.6537 228.103 25.6537C226.375 25.6537 224.911 24.7897 223.999 23.2537V30.0457H221.575V12.6937H223.831V15.0217C224.743 13.3897 226.303 12.4537 228.103 12.4537C231.487 12.4537 233.719 15.2137 233.719 19.0537ZM231.199 19.0537C231.199 16.1977 229.687 14.5897 227.599 14.5897C225.583 14.5897 223.999 16.1977 223.999 19.0537C223.999 21.8617 225.559 23.4937 227.599 23.4937C229.687 23.4937 231.199 21.9097 231.199 19.0537ZM241.504 25.6537C237.904 25.6537 235.264 22.8217 235.264 19.0537C235.264 15.2857 237.904 12.4537 241.504 12.4537C245.104 12.4537 247.744 15.2857 247.744 19.0537C247.744 22.8217 245.104 25.6537 241.504 25.6537ZM241.504 23.5177C243.592 23.5177 245.248 21.8377 245.248 19.0537C245.248 16.2697 243.592 14.6137 241.504 14.6137C239.416 14.6137 237.784 16.2697 237.784 19.0537C237.784 21.8377 239.416 23.5177 241.504 23.5177ZM252.639 18.2377V25.4137H250.215V12.6937H252.471V14.8057C253.335 13.3897 254.775 12.4537 256.527 12.4537C259.143 12.4537 260.871 14.1337 260.871 17.1817V25.4137H258.447V17.9977C258.447 15.8137 257.487 14.5897 255.687 14.5897C254.031 14.5897 252.639 15.9817 252.639 18.2377ZM274.17 21.6217C274.17 24.1177 272.226 25.6537 268.842 25.6537C265.482 25.6537 263.49 23.9977 263.25 21.2617H265.578C265.674 22.8457 266.946 23.8297 268.89 23.8297C270.594 23.8297 271.722 23.2297 271.722 22.0297C271.722 20.9737 271.074 20.5177 269.49 20.2057L267.426 19.8217C265.074 19.3657 263.754 18.1657 263.754 16.2457C263.754 14.0137 265.698 12.4537 268.65 12.4537C271.698 12.4537 273.762 14.0857 273.978 16.7017H271.65C271.506 15.1657 270.378 14.2777 268.674 14.2777C267.138 14.2777 266.106 14.9257 266.106 16.0297C266.106 17.0617 266.754 17.5417 268.29 17.8297L270.45 18.2377C272.97 18.6937 274.17 19.7977 274.17 21.6217ZM279.769 9.74169C279.769 10.6537 279.049 11.3497 278.017 11.3497C276.985 11.3497 276.241 10.6537 276.241 9.74169C276.241 8.8057 276.985 8.1337 278.017 8.1337C279.049 8.1337 279.769 8.8057 279.769 9.74169ZM279.241 25.4137H276.817V12.6937H279.241V25.4137ZM294.75 19.0537C294.75 22.8697 292.542 25.6537 289.11 25.6537C287.31 25.6537 285.774 24.7417 284.862 23.1337V25.4137H282.606V8.18169H285.03V14.8777C285.918 13.3177 287.382 12.4537 289.11 12.4537C292.518 12.4537 294.75 15.1897 294.75 19.0537ZM292.23 19.0537C292.23 16.1737 290.718 14.5897 288.63 14.5897C286.614 14.5897 285.03 16.1497 285.03 19.0057C285.03 21.8137 286.566 23.4937 288.63 23.4937C290.718 23.4937 292.23 21.8857 292.23 19.0537ZM300.159 9.74169C300.159 10.6537 299.439 11.3497 298.407 11.3497C297.375 11.3497 296.631 10.6537 296.631 9.74169C296.631 8.8057 297.375 8.1337 298.407 8.1337C299.439 8.1337 300.159 8.8057 300.159 9.74169ZM299.631 25.4137H297.207V12.6937H299.631V25.4137ZM305.444 25.4137H302.996V8.18169H305.444V25.4137ZM311.761 9.74169C311.761 10.6537 311.041 11.3497 310.009 11.3497C308.977 11.3497 308.233 10.6537 308.233 9.74169C308.233 8.8057 308.977 8.1337 310.009 8.1337C311.041 8.1337 311.761 8.8057 311.761 9.74169ZM311.233 25.4137H308.809V12.6937H311.233V25.4137ZM321.774 23.0617V25.1977C321.03 25.5337 320.382 25.6537 319.614 25.6537C317.262 25.6537 315.63 24.3817 315.63 21.5737V14.7577H312.822V12.6937H315.63V8.9257H318.054V12.6937H321.894V14.7577H318.054V21.0217C318.054 22.7737 318.894 23.3977 320.19 23.3977C320.766 23.3977 321.27 23.3017 321.774 23.0617ZM334.767 12.6937L328.407 30.0457H325.767L327.591 25.2457L322.575 12.6937H325.191L328.887 22.3897L332.319 12.6937H334.767ZM340.251 10.3657C340.251 12.4297 338.451 14.1817 336.051 13.9897V12.6937C337.395 12.7657 338.355 12.0937 338.571 11.0377C338.379 11.1097 338.187 11.1337 338.019 11.1337C337.107 11.1337 336.459 10.4617 336.459 9.6457C336.459 8.6857 337.179 8.0377 338.235 8.0377C339.507 8.0377 340.251 8.97369 340.251 10.3657ZM345.363 10.3657C345.363 12.4297 343.563 14.1817 341.163 13.9897V12.6937C342.507 12.7657 343.467 12.0937 343.683 11.0377C343.491 11.1097 343.299 11.1337 343.107 11.1337C342.219 11.1337 341.571 10.4617 341.571 9.6457C341.571 8.6857 342.291 8.0377 343.347 8.0377C344.619 8.0377 345.363 8.97369 345.363 10.3657Z" fill="white"/>
<path d="M117.131 175.681L109.571 164.461V175.681H107.531V161.321H109.931L117.311 172.241V161.321H119.351V175.681H117.131ZM128.713 175.681V174.041C128.053 175.221 126.873 175.881 125.313 175.881C123.113 175.881 121.673 174.621 121.673 172.681C121.673 170.601 123.333 169.521 126.493 169.521C127.113 169.521 127.613 169.541 128.473 169.641V168.861C128.473 167.341 127.653 166.481 126.253 166.481C124.773 166.481 123.873 167.361 123.813 168.841H121.973C122.073 166.461 123.773 164.881 126.253 164.881C128.873 164.881 130.393 166.361 130.393 168.881V175.681H128.713ZM123.593 172.621C123.593 173.721 124.413 174.441 125.713 174.441C127.413 174.441 128.473 173.381 128.473 171.761V170.901C127.693 170.801 127.133 170.781 126.613 170.781C124.593 170.781 123.593 171.381 123.593 172.621ZM135.113 175.681H133.093V165.081H134.973V166.841C135.693 165.621 136.833 164.881 138.293 164.881C139.853 164.881 141.033 165.681 141.513 167.081C142.253 165.721 143.473 164.881 145.093 164.881C147.273 164.881 148.673 166.301 148.673 168.821V175.681H146.653V169.461C146.653 167.701 145.873 166.661 144.393 166.661C143.013 166.661 141.893 167.821 141.893 169.601V175.681H139.873V169.461C139.873 167.701 139.093 166.661 137.613 166.661C136.213 166.661 135.113 167.821 135.113 169.601V175.681ZM157.795 175.681V174.041C157.135 175.221 155.955 175.881 154.395 175.881C152.195 175.881 150.755 174.621 150.755 172.681C150.755 170.601 152.415 169.521 155.575 169.521C156.195 169.521 156.695 169.541 157.555 169.641V168.861C157.555 167.341 156.735 166.481 155.335 166.481C153.855 166.481 152.955 167.361 152.895 168.841H151.055C151.155 166.461 152.855 164.881 155.335 164.881C157.955 164.881 159.475 166.361 159.475 168.881V175.681H157.795ZM152.675 172.621C152.675 173.721 153.495 174.441 154.795 174.441C156.495 174.441 157.555 173.381 157.555 171.761V170.901C156.775 170.801 156.215 170.781 155.695 170.781C153.675 170.781 152.675 171.381 152.675 172.621ZM164.195 169.701V175.681H162.175V165.081H164.055V166.841C164.775 165.661 165.975 164.881 167.435 164.881C169.615 164.881 171.055 166.281 171.055 168.821V175.681H169.035V169.501C169.035 167.681 168.235 166.661 166.735 166.661C165.355 166.661 164.195 167.821 164.195 169.701ZM183.778 175.681H181.578V163.301H176.898V161.321H188.458V163.301H183.778V175.681ZM192.262 169.701V175.681H190.242V161.321H192.262V166.781C192.962 165.641 194.042 164.881 195.502 164.881C197.682 164.881 199.122 166.281 199.122 168.821V175.681H197.102V169.501C197.102 167.681 196.302 166.661 194.802 166.661C193.422 166.661 192.262 167.821 192.262 169.701ZM208.224 175.681V174.041C207.564 175.221 206.384 175.881 204.824 175.881C202.624 175.881 201.184 174.621 201.184 172.681C201.184 170.601 202.844 169.521 206.004 169.521C206.624 169.521 207.124 169.541 207.984 169.641V168.861C207.984 167.341 207.164 166.481 205.764 166.481C204.284 166.481 203.384 167.361 203.324 168.841H201.484C201.584 166.461 203.284 164.881 205.764 164.881C208.384 164.881 209.904 166.361 209.904 168.881V175.681H208.224ZM203.104 172.621C203.104 173.721 203.924 174.441 205.224 174.441C206.924 174.441 207.984 173.381 207.984 171.761V170.901C207.204 170.801 206.644 170.781 206.124 170.781C204.104 170.781 203.104 171.381 203.104 172.621ZM214.625 175.681H212.605V161.321H214.625V169.821L219.165 165.081H221.545L216.645 170.221L222.005 175.681H219.405L214.625 170.661V175.681ZM230.045 171.321V165.081H232.065V175.681H230.185V174.001C229.625 175.101 228.385 175.881 226.945 175.881C224.805 175.881 223.325 174.621 223.325 171.901V165.081H225.345V171.501C225.345 173.341 226.265 174.101 227.585 174.101C228.945 174.101 230.045 172.981 230.045 171.321ZM236.891 170.261V175.681H234.871V165.081H236.751V167.321C237.491 165.861 239.091 164.941 240.831 164.941V167.041C238.551 166.921 236.891 167.921 236.891 170.261ZM120.117 197.681H118.357V186.193H125.333V187.729H120.117V191.473H124.565V193.009H120.117V197.681ZM130.25 197.841C127.85 197.841 126.09 195.953 126.09 193.441C126.09 190.929 127.85 189.041 130.25 189.041C132.65 189.041 134.41 190.929 134.41 193.441C134.41 195.953 132.65 197.841 130.25 197.841ZM130.25 196.417C131.642 196.417 132.746 195.297 132.746 193.441C132.746 191.585 131.642 190.481 130.25 190.481C128.858 190.481 127.77 191.585 127.77 193.441C127.77 195.297 128.858 196.417 130.25 196.417ZM141.354 194.193V189.201H142.97V197.681H141.466V196.337C141.018 197.217 140.026 197.841 138.874 197.841C137.162 197.841 135.978 196.833 135.978 194.657V189.201H137.594V194.337C137.594 195.809 138.33 196.417 139.386 196.417C140.474 196.417 141.354 195.521 141.354 194.193ZM146.83 192.897V197.681H145.214V189.201H146.718V190.609C147.294 189.665 148.254 189.041 149.422 189.041C151.166 189.041 152.318 190.161 152.318 192.193V197.681H150.702V192.737C150.702 191.281 150.062 190.465 148.862 190.465C147.758 190.465 146.83 191.393 146.83 192.897ZM153.856 193.441C153.856 190.865 155.328 189.041 157.616 189.041C158.752 189.041 159.744 189.617 160.336 190.657V186.193H161.952V197.681H160.448V196.161C159.84 197.233 158.816 197.841 157.616 197.841C155.328 197.841 153.856 195.985 153.856 193.441ZM155.536 193.441C155.536 195.329 156.528 196.401 157.936 196.401C159.312 196.401 160.336 195.281 160.336 193.409C160.336 191.505 159.28 190.465 157.936 190.465C156.528 190.465 155.536 191.521 155.536 193.441ZM167.686 197.841C165.238 197.841 163.59 196.065 163.59 193.393C163.59 190.881 165.302 189.041 167.638 189.041C170.166 189.041 171.846 191.089 171.558 193.841H165.238C165.366 195.569 166.23 196.577 167.654 196.577C168.854 196.577 169.686 195.921 169.958 194.817H171.558C171.142 196.705 169.686 197.841 167.686 197.841ZM167.606 190.257C166.31 190.257 165.43 191.185 165.254 192.769H169.846C169.766 191.201 168.918 190.257 167.606 190.257ZM174.892 193.345V197.681H173.276V189.201H174.78V190.993C175.372 189.825 176.652 189.089 178.044 189.089V190.769C176.22 190.673 174.892 191.473 174.892 193.345ZM186.267 191.521L188.827 194.401C189.019 193.841 189.131 193.153 189.163 192.417H190.651C190.619 193.489 190.299 194.609 189.787 195.473L191.755 197.681H189.739L188.827 196.657C187.963 197.441 186.955 197.841 185.899 197.841C183.595 197.841 182.123 196.497 182.123 194.401C182.123 193.105 182.955 192.065 184.219 191.457C183.723 190.785 183.483 190.193 183.483 189.425C183.483 187.857 184.811 186.705 186.587 186.705C188.379 186.705 189.627 187.825 189.659 189.473H188.139C188.059 188.529 187.371 188.001 186.587 188.001C185.755 188.001 185.131 188.609 185.131 189.441C185.131 190.161 185.515 190.657 186.267 191.521ZM183.675 194.305C183.675 195.441 184.427 196.513 186.027 196.513C186.763 196.513 187.467 196.225 187.995 195.729L185.051 192.417C184.235 192.753 183.675 193.425 183.675 194.305ZM201.522 197.921C198.322 197.921 195.842 195.313 195.842 191.921C195.842 188.545 198.322 185.953 201.522 185.953C204.402 185.953 206.706 187.873 207.138 190.705H205.266C204.946 188.849 203.442 187.537 201.538 187.537C199.266 187.537 197.666 189.377 197.666 191.921C197.666 194.497 199.266 196.337 201.538 196.337C203.442 196.337 204.946 195.009 205.266 193.153H207.138C206.706 196.001 204.402 197.921 201.522 197.921ZM216.247 196.145V197.681H208.967V186.193H216.135V187.729H210.727V190.993H215.655V192.529H210.727V196.145H216.247ZM223.479 197.921C220.151 197.921 217.639 195.313 217.639 191.921C217.639 188.529 220.151 185.953 223.479 185.953C226.807 185.953 229.319 188.529 229.319 191.921C229.319 195.313 226.807 197.921 223.479 197.921ZM223.479 196.337C225.911 196.337 227.495 194.385 227.495 191.921C227.495 189.457 225.911 187.537 223.479 187.537C221.047 187.537 219.463 189.457 219.463 191.921C219.463 194.385 221.047 196.337 223.479 196.337Z" fill="white" fill-opacity="0.6"/>
<path d="M282.362 122.628C282.978 122.628 283.439 122.813 283.747 123.182C284.116 123.552 284.301 124.075 284.301 124.752C284.301 125.429 283.84 126.291 282.916 127.337C281.993 128.383 281.193 128.906 280.516 128.906C279.839 128.906 279.346 128.691 279.039 128.26C278.731 127.891 278.577 127.429 278.577 126.875C278.577 126.383 279.07 125.552 280.054 124.383C281.039 123.213 281.808 122.628 282.362 122.628Z" fill="white"/>
<path d="M257.393 71.5743L236.897 70.5588C236.774 70.5588 236.497 70.7434 236.066 71.1127C235.636 71.482 235.266 71.6666 234.959 71.6666C234.651 71.6666 234.435 71.6358 234.312 71.5743C230.681 70.2818 228.865 68.7123 228.865 66.8659C228.865 65.9426 229.388 65.481 230.435 65.481C231.05 65.481 235.02 65.9734 242.344 66.9582C249.73 67.8814 257.67 68.343 266.163 68.343C274.657 68.343 282.812 67.8814 290.629 66.9582C298.938 59.7571 307.185 56.1565 315.371 56.1565C318.756 56.1565 320.449 56.9566 320.449 58.5569C320.449 62.7421 310.97 66.2196 292.014 68.9893C285.736 75.2672 278.135 85.515 269.21 99.7326C265.886 104.964 262.594 110.011 259.332 114.873C252.13 125.583 246.253 130.937 241.698 130.937C240.036 130.937 239.205 130.199 239.205 128.722C239.205 127.306 239.821 125.644 241.052 123.736C242.221 121.89 243.144 120.967 243.821 120.967C243.883 120.967 243.914 120.967 243.914 120.967C244.714 120.967 245.114 121.428 245.114 122.352L244.745 124.106C244.745 124.413 244.868 124.567 245.114 124.567C248.376 124.567 253.915 117.92 261.732 104.626C264.871 99.271 268.872 93.1777 273.734 86.3459C278.596 79.514 283.305 73.9131 287.859 69.5432C277.211 70.8973 267.056 71.5743 257.393 71.5743ZM313.155 57.9106C307.247 57.9106 301.123 60.7418 294.783 66.4043C299.338 65.7272 303.246 64.8963 306.508 63.9116C309.832 62.9268 312.171 62.0036 313.525 61.1419C314.879 60.2802 315.556 59.5416 315.556 58.9262C315.556 58.2491 314.756 57.9106 313.155 57.9106Z" fill="white"/>
<path d="M226.379 111.365C213.392 122.198 205.36 127.614 202.283 127.614C200.498 127.614 199.605 126.875 199.605 125.398C199.605 123.921 200.251 122.167 201.544 120.136C202.898 118.105 204.221 116.32 205.514 114.781C206.868 113.181 207.545 112.227 207.545 111.919C207.545 111.611 207.453 111.457 207.268 111.457C201.544 115.273 198.128 117.612 197.02 118.474C195.974 119.336 194.22 120.751 191.758 122.721C189.357 124.69 187.788 125.921 187.049 126.414C186.311 126.906 185.511 127.152 184.649 127.152C183.787 127.152 183.356 126.783 183.356 126.044C183.356 125.183 185.08 122.475 188.526 117.92C191.85 113.365 193.512 110.811 193.512 110.257C193.512 110.134 193.389 110.073 193.143 110.073C192.958 110.073 190.311 111.95 185.203 115.704L184.834 114.319C189.204 110.811 192.158 108.565 193.697 107.58C195.235 106.595 196.466 106.103 197.389 106.103C198.374 106.103 198.867 106.564 198.867 107.488C198.867 108.103 197.112 110.627 193.604 115.058C190.158 119.428 188.434 121.798 188.434 122.167C188.434 122.475 188.526 122.628 188.711 122.628C188.957 122.628 192.466 120.167 199.236 115.243C206.068 110.257 210.222 107.765 211.699 107.765C212.13 107.765 212.53 107.949 212.9 108.319C213.33 108.626 213.546 108.934 213.546 109.242C213.546 109.98 211.915 112.442 208.653 116.628C205.391 120.751 203.76 123.09 203.76 123.644C203.76 124.198 204.129 124.475 204.868 124.475C205.668 124.475 207.329 123.644 209.853 121.982C214.469 118.966 218.716 115.858 222.593 112.658L224.624 110.996C225.055 110.688 225.455 110.534 225.825 110.534C226.194 110.534 226.379 110.719 226.379 111.088V111.365Z" fill="white"/>
<path d="M170.817 115.335C170.447 115.335 170.263 115.212 170.263 114.966C170.263 114.658 170.478 114.319 170.909 113.95C172.94 112.288 173.956 110.78 173.956 109.426C173.956 108.565 173.186 108.072 171.647 107.949C168.878 108.011 165.554 110.011 161.677 113.95C157.861 117.889 155.953 120.844 155.953 122.813C155.953 123.49 156.322 123.829 157.061 123.829C157.861 123.829 158.907 123.306 160.2 122.259C161.369 121.521 163.554 119.674 166.754 116.72C167.493 115.981 168.201 115.612 168.878 115.612C169.739 115.612 170.17 116.012 170.17 116.812C170.17 117.12 170.078 117.366 169.893 117.551C169.709 117.735 169.37 118.135 168.878 118.751C168.385 119.305 167.955 119.828 167.585 120.32C166.477 121.921 165.923 122.967 165.923 123.459C165.923 124.69 166.416 125.306 167.401 125.306C168.693 125.306 171.124 124.136 174.694 121.798C178.264 119.397 181.526 116.997 184.48 114.596L188.912 111.088C189.343 110.78 189.743 110.627 190.112 110.627C190.481 110.627 190.666 110.842 190.666 111.273V111.458C185.927 115.458 180.91 119.213 175.617 122.721C170.386 126.229 166.939 127.983 165.277 127.983C163.308 127.983 162.323 126.937 162.323 124.844C162.323 124.352 162.415 123.89 162.6 123.459C162.785 123.029 162.877 122.721 162.877 122.536C162.877 122.352 162.815 122.228 162.692 122.167C162.508 122.167 161.307 122.998 159.092 124.66C156.937 126.321 155.029 127.152 153.368 127.152C151.767 127.152 150.967 126.291 150.967 124.567C150.967 122.844 152.106 120.536 154.383 117.643C156.722 114.689 159.83 112.011 163.708 109.611C167.585 107.211 171.37 106.01 175.063 106.01C175.925 106.01 176.633 106.226 177.187 106.657C177.802 107.088 178.11 107.765 178.11 108.688C178.11 109.55 177.218 110.873 175.433 112.658C173.648 114.443 172.109 115.335 170.817 115.335Z" fill="white"/>
<path d="M119.575 110.35L119.39 109.334C119.39 109.026 120.036 108.872 121.329 108.872C122.067 108.872 122.437 109.334 122.437 110.257C122.437 111.18 121.36 113.242 119.205 116.443C117.113 119.582 116.066 121.213 116.066 121.336C116.066 121.459 116.19 121.521 116.436 121.521C116.682 121.521 119.513 119.366 124.929 115.058C130.407 110.75 133.7 108.595 134.808 108.595C135.916 108.595 136.47 108.996 136.47 109.796C136.47 110.534 136.162 111.396 135.546 112.381C134.931 113.304 133.638 115.027 131.669 117.551C129.699 120.013 128.653 121.336 128.53 121.521C128.407 121.705 128.345 121.921 128.345 122.167C128.345 122.413 128.53 122.536 128.899 122.536C129.33 122.536 132.377 120.443 138.039 116.258C143.702 112.073 146.933 109.98 147.733 109.98C148.533 109.98 148.933 110.319 148.933 110.996C148.933 112.227 147.579 114.381 144.871 117.458C142.163 120.536 140.809 122.505 140.809 123.367C140.809 124.167 141.117 124.567 141.732 124.567C142.409 124.567 144.04 123.706 146.625 121.982C151.241 118.905 155.488 115.797 159.366 112.658L161.397 110.996C161.889 110.688 162.289 110.534 162.597 110.534C162.966 110.534 163.151 110.719 163.151 111.088V111.365C150.164 122.198 142.132 127.614 139.055 127.614C137.27 127.614 136.377 126.875 136.377 125.398C136.377 124.167 137.27 122.351 139.055 119.951C140.84 117.551 141.732 116.258 141.732 116.074C141.732 115.827 141.64 115.704 141.455 115.704C141.332 115.704 138.809 117.458 133.885 120.967C129.022 124.475 126.13 126.229 125.206 126.229C124.776 126.229 124.406 126.075 124.099 125.767C123.791 125.398 123.637 125.029 123.637 124.66C123.637 123.552 124.96 121.305 127.607 117.92C130.253 114.596 131.577 112.781 131.577 112.473C131.577 112.165 131.392 112.011 131.023 112.011C130.592 112.011 126.222 115.397 117.913 122.167L113.297 125.86C112.497 126.537 111.881 126.875 111.45 126.875C111.081 126.875 110.712 126.752 110.343 126.506C109.973 126.321 109.789 126.014 109.789 125.583C109.789 125.152 110.312 124.106 111.358 122.444C112.466 120.782 113.882 118.751 115.605 116.351C118.251 112.781 119.575 110.78 119.575 110.35Z" fill="white"/>
<path d="M100.944 115.335C100.574 115.335 100.39 115.212 100.39 114.966C100.39 114.658 100.605 114.319 101.036 113.95C103.067 112.288 104.082 110.78 104.082 109.426C104.082 108.565 103.313 108.072 101.774 107.949C99.0047 108.011 95.6811 110.011 91.8036 113.95C87.9876 117.889 86.0796 120.844 86.0796 122.813C86.0796 123.49 86.4489 123.829 87.1875 123.829C87.9876 123.829 89.034 123.306 90.3265 122.259C91.4959 121.521 93.6808 119.674 96.8813 116.72C97.6199 115.981 98.3277 115.612 99.0047 115.612C99.8664 115.612 100.297 116.012 100.297 116.812C100.297 117.12 100.205 117.366 100.02 117.551C99.8356 117.735 99.4971 118.135 99.0047 118.751C98.5124 119.305 98.0815 119.828 97.7122 120.32C96.6044 121.921 96.0504 122.967 96.0504 123.459C96.0504 124.69 96.5428 125.306 97.5276 125.306C98.8201 125.306 101.251 124.136 104.821 121.798C108.391 119.397 111.653 116.997 114.607 114.596L119.039 111.088C119.47 110.78 119.87 110.627 120.239 110.627C120.608 110.627 120.793 110.842 120.793 111.273V111.458C116.054 115.458 111.037 119.213 105.744 122.721C100.513 126.229 97.066 127.983 95.4042 127.983C93.4346 127.983 92.4499 126.937 92.4499 124.844C92.4499 124.352 92.5422 123.89 92.7268 123.459C92.9115 123.029 93.0038 122.721 93.0038 122.536C93.0038 122.352 92.9423 122.228 92.8192 122.167C92.6345 122.167 91.4343 122.998 89.2186 124.66C87.0644 126.321 85.1564 127.152 83.4946 127.152C81.8944 127.152 81.0942 126.291 81.0942 124.567C81.0942 122.844 82.2329 120.536 84.5102 117.643C86.849 114.689 89.9572 112.011 93.8347 109.611C97.7122 107.211 101.497 106.01 105.19 106.01C106.052 106.01 106.76 106.226 107.314 106.657C107.929 107.088 108.237 107.765 108.237 108.688C108.237 109.55 107.345 110.873 105.56 112.658C103.775 114.443 102.236 115.335 100.944 115.335Z" fill="white"/>
<path d="M51.3855 91.4236C50.9546 91.4236 50.6161 91.2389 50.3699 90.8697C50.1853 90.5004 50.0622 90.2849 50.0006 90.2234C49.3236 90.9004 48.3696 91.7621 47.1386 92.8084C45.9692 93.8547 43.8458 95.2396 40.7684 96.9629C37.691 98.6863 34.9521 99.5479 32.5517 99.5479C28.5511 99.5479 26.5508 98.0092 26.5508 94.9318C26.5508 91.6082 28.6742 87.2999 32.921 82.0067C37.1678 76.7136 42.4302 72.0052 48.7081 67.8814C55.0476 63.6962 60.71 61.6035 65.6954 61.6035C68.5882 61.6035 70.7731 62.4652 72.2503 64.1885C73.789 65.9119 74.5583 68.1584 74.5583 70.9281C74.5583 73.6362 73.3581 77.5445 70.9578 82.653C80.5593 75.5134 87.2372 71.9436 90.9917 71.9436C91.7303 71.9436 92.3457 72.159 92.8381 72.5899C93.3305 73.0207 93.5767 73.6054 93.5767 74.344C93.5767 75.5749 91.0532 79.5448 86.0063 86.2535C81.0209 92.9623 76.0047 99.9788 70.9578 107.303C65.9108 114.627 63.3873 119.674 63.3873 122.444C63.3873 124.167 64.3413 125.029 66.2493 125.029C69.1421 125.029 73.235 122.382 78.5282 117.089C79.3283 116.289 80.0053 115.889 80.5593 115.889C80.9286 115.889 81.1132 116.166 81.1132 116.72C81.1132 117.212 80.1284 118.351 78.1589 120.136C76.1893 121.859 73.7274 123.552 70.7731 125.214C67.8804 126.875 65.3569 127.706 63.2027 127.706C60.3099 127.706 58.8635 126.506 58.8635 124.106C58.8635 121.644 60.3715 117.889 63.3873 112.842C66.4647 107.734 69.8499 102.779 73.5428 97.9785C83.3289 85.3611 88.222 78.0061 88.222 75.9135C88.222 75.5442 88.0066 75.3595 87.5758 75.3595C84.0675 75.3595 78.0973 78.6831 69.6652 85.3303C64.926 94.6241 58.4635 104.287 50.2776 114.319C42.1532 124.352 36.6754 129.368 33.8442 129.368C32.3055 129.368 31.5362 128.722 31.5362 127.429C31.5362 123.429 34.9829 117.489 41.8763 109.611C48.7697 101.671 56.7094 94.0702 65.6954 86.8075C69.0805 80.0372 70.7731 74.744 70.7731 70.9281C70.7731 66.2504 68.2804 63.9116 63.295 63.9116C59.479 63.9116 54.8629 65.7888 49.4467 69.5432C44.092 73.2361 39.5067 77.4522 35.6907 82.1914C31.8747 86.9306 29.9667 90.685 29.9667 93.4547C29.9667 95.7935 31.5054 96.9629 34.5828 96.9629C36.6754 96.9629 39.6605 95.7012 43.5381 93.1777C47.4156 90.6542 49.6313 88.9001 50.1853 87.9153C52.8318 83.2377 54.3398 80.6527 54.7091 80.1603C56.0016 78.1292 57.0479 77.1136 57.848 77.1136C58.1557 77.1136 58.3404 77.3291 58.4019 77.7599C58.4635 78.1907 58.4019 78.6216 58.2173 79.0524C58.0942 79.4217 57.848 79.9141 57.4787 80.5296C57.1094 81.0835 56.7709 81.6067 56.4632 82.099C56.1554 82.5299 55.7246 83.1146 55.1707 83.8532C54.6783 84.5917 54.2167 85.238 53.7858 85.7919C53.4165 86.3459 53.1088 86.869 52.8626 87.3614C52.4933 88.1 52.3087 88.9617 52.3087 89.9464C52.3087 90.9312 52.0009 91.4236 51.3855 91.4236ZM35.0444 127.152C36.7062 127.091 40.8299 122.967 47.4156 114.781C54.0628 106.534 59.6021 98.2862 64.0336 90.0388C56.2785 96.686 49.4467 103.579 43.5381 110.719C37.6294 117.859 34.6751 123.121 34.6751 126.506C34.6751 126.937 34.7982 127.152 35.0444 127.152Z" fill="white"/>
</svg>
