<svg width="16" height="20" viewBox="0 0 16 20" fill="none" xmlns="http://www.w3.org/2000/svg">
<path d="M12.0217 8.84654C12.0244 8.84662 12.0271 8.84685 12.0297 8.84693C12.0548 8.83876 12.012 8.84486 12.0217 8.84654Z" fill="#1F2937"/>
<path d="M4.09377 8.84685C4.06479 8.83697 4.126 8.84717 4.09377 8.84685V8.84685Z" fill="#1F2937"/>
<path d="M3.75084 9.42876C3.75084 10.557 3.75084 12.0715 3.75084 12.5853C3.75084 13.097 4.1671 13.5132 4.67874 13.5132H9.06954C9.23188 13.5132 9.36344 13.3817 9.36344 13.2193C9.36344 13.057 9.23188 12.9254 9.06954 12.9254H4.6787C4.51464 12.9254 4.37733 12.8086 4.34557 12.6538C4.33616 12.6079 4.33862 12.6453 4.33862 11.9106H11.7813V12.5853C11.7813 12.7728 11.6287 12.9254 11.4412 12.9254H10.1014C9.93907 12.9254 9.80751 13.057 9.80751 13.2193C9.80751 13.3817 9.93907 13.5132 10.1014 13.5132H11.4412C11.9529 13.5132 12.3691 13.097 12.3691 12.5853C12.3691 12.0705 12.3691 10.5495 12.3691 9.43192C14.3529 9.27727 15.8492 7.57914 15.8207 5.69003C15.8208 5.68734 15.8209 5.6846 15.8209 5.68187C15.8209 3.35967 13.7147 1.58181 11.4118 1.99557C9.99548 -0.680225 6.18132 -0.652452 4.7844 2.00264C2.47381 1.5626 0.334385 3.33749 0.334385 5.68191C0.334385 5.6846 0.334502 5.68734 0.334502 5.69007C0.334502 5.69265 0.334385 5.69523 0.334385 5.69785C0.334385 7.65219 1.83912 9.26145 3.75084 9.42876ZM4.12542 2.53276C4.25163 2.53631 4.4226 2.54041 4.54694 2.55881C4.42217 2.9317 4.3544 3.33042 4.3544 3.74471C4.35436 3.90702 4.48596 4.03862 4.64827 4.03862C4.81058 4.03862 4.94218 3.90702 4.94218 3.74471C4.94218 1.36443 7.45945 -0.117098 9.52938 0.930328C10.568 1.45904 11.2579 2.53334 11.2579 3.74471C11.2579 3.90702 11.3894 4.03862 11.5518 4.03862C11.7141 4.03862 11.8457 3.90702 11.8457 3.74471C11.8457 3.32831 11.7773 2.9276 11.6513 2.55311C11.7619 2.53815 11.9185 2.53596 12.0299 2.53268C13.7683 2.53268 15.2285 3.95222 15.2329 5.6898C15.2285 7.42738 13.7683 8.84692 12.0297 8.84692C12.0256 8.84692 12.0231 8.84677 12.0217 8.84653C11.5883 8.83348 11.1267 8.74161 10.7359 8.55837C10.5891 8.48946 10.414 8.55266 10.345 8.69966C10.2761 8.84661 10.3394 9.02161 10.4863 9.09056C10.8968 9.28306 11.3312 9.39735 11.7813 9.43196V11.3228H10.2999V10.4015C10.2999 10.2392 10.1684 10.1076 10.006 10.1076C9.84368 10.1076 9.71212 10.2392 9.71212 10.4015V11.3228H8.29227V10.4015C8.29227 10.2392 8.1607 10.1076 7.99836 10.1076C7.83606 10.1076 7.70445 10.2392 7.70445 10.4015V11.3228H6.28468V10.4015C6.28468 10.2392 6.15308 10.1076 5.99077 10.1076C5.82847 10.1076 5.69687 10.2392 5.69687 10.4015V11.3228H4.33866V9.43435C4.80143 9.4031 5.24788 9.28809 5.66898 9.09056C5.81593 9.02161 5.87917 8.84661 5.81027 8.69966C5.74128 8.5527 5.56624 8.4895 5.41937 8.55837C5.0169 8.74712 4.54065 8.83864 4.09377 8.8468C2.37306 8.82954 0.92677 7.40965 0.922473 5.68984C0.926809 3.95229 2.38689 2.53276 4.12542 2.53276Z" fill="#1F2937"/>
<path d="M4.12541 2.53271C4.09682 2.54201 4.15713 2.53271 4.12541 2.53271V2.53271Z" fill="#1F2937"/>
<path d="M12.0299 2.53271C11.9981 2.53271 12.0586 2.54205 12.0299 2.53271V2.53271Z" fill="#1F2937"/>
<path d="M15.8058 14.0951C14.9388 12.5934 11.8946 13.5666 11.8052 15.3028L8.22867 17.3677L4.75674 15.3632L4.79475 15.2974C5.05054 14.8543 4.89811 14.2857 4.45506 14.0299L2.11396 12.6782C1.97334 12.5971 1.79361 12.6452 1.71244 12.7858C1.63126 12.9264 1.67943 13.1061 1.82001 13.1873L4.16116 14.539C4.32354 14.6328 4.3794 14.8412 4.28565 15.0035C4.02557 15.454 4.10432 15.3176 3.91748 15.6412L1.27001 14.1127C1.12943 14.0316 0.949699 14.0797 0.868526 14.2203C0.787354 14.3609 0.835519 14.5406 0.976105 14.6218L3.62354 16.1502C3.56393 16.2534 3.39311 16.5494 3.25545 16.7878C3.16162 16.9502 2.95318 17.0061 2.7908 16.9123L0.449697 15.5607C0.30911 15.4796 0.129344 15.5277 0.0482106 15.6683C-0.0329616 15.8089 0.0152028 15.9886 0.155789 16.0698C2.69103 17.5335 2.62959 17.5455 2.95932 17.5455C3.28022 17.5455 3.59283 17.3791 3.76451 17.0818L3.80244 17.0161L6.43132 18.5338C6.03105 19.1742 6.49515 19.9952 7.23984 19.9952C7.55289 19.9952 7.69055 19.8822 8.22867 19.5715L8.7409 19.8673C9.59602 20.361 10.5481 19.3784 10.0299 18.5385L11.0886 17.949C11.2305 17.8701 11.2814 17.6911 11.2024 17.5493C11.1234 17.4074 10.9445 17.3564 10.8027 17.4355L9.55208 18.1318L8.81645 17.707L12.2467 15.7266C12.3435 15.6707 12.4002 15.5647 12.393 15.4532C12.3122 14.1988 14.7202 13.3903 15.2966 14.3889C15.8742 15.3892 13.9669 17.067 12.9231 16.3714C12.8301 16.3094 12.71 16.3056 12.6132 16.3614L11.658 16.9129C11.5174 16.9941 11.4693 17.1738 11.5504 17.3144C11.6315 17.455 11.8113 17.503 11.9519 17.4219L12.7594 16.9557C14.3101 17.7476 16.6717 15.5945 15.8058 14.0951ZM7.4225 19.3583C7.08445 19.5537 6.71328 19.1484 6.94093 18.8282L7.64082 19.2323L7.4225 19.3583ZM9.57208 18.9461C9.63442 19.1784 9.45922 19.4075 9.21754 19.4075C9.09141 19.4075 9.09571 19.3935 8.37606 18.978C8.37606 18.978 7.06519 18.2212 7.05488 18.2152L7.0548 18.2152L4.09631 16.5071L4.46284 15.8723C9.86239 18.9898 9.51747 18.7421 9.57208 18.9461Z" fill="#1F2937"/>
</svg>
