<svg width="20" height="20" viewBox="0 0 20 20" fill="none" xmlns="http://www.w3.org/2000/svg">
<g clip-path="url(#clip0_759_6132)">
<path d="M10 20C15.2855 20 19.5703 15.5228 19.5703 10C19.5703 4.47715 15.2855 0 10 0C4.71446 0 0.429688 4.47715 0.429688 10C0.429688 15.5228 4.71446 20 10 20Z" fill="#E88102"/>
<path d="M10 18.9453C15.2316 18.9453 19.4727 14.7043 19.4727 9.47266C19.4727 4.24105 15.2316 0 10 0C4.7684 0 0.527344 4.24105 0.527344 9.47266C0.527344 14.7043 4.7684 18.9453 10 18.9453Z" fill="#FDD835"/>
<path opacity="0.5" d="M13.7812 0.785156L1.3125 13.25C0.894531 12.293 0.632812 11.2539 0.554688 10.1641L10.6914 0.0234375C11.7812 0.105469 12.8203 0.367188 13.7812 0.785156Z" fill="white"/>
<path opacity="0.5" d="M18.2539 4.82422L5.35156 17.7266C4.54688 17.2734 3.82031 16.707 3.18359 16.0469L16.5781 2.65625C17.2344 3.28906 17.8008 4.01953 18.2539 4.82422Z" fill="white"/>
<path opacity="0.5" d="M16.1914 2.30078L2.83203 15.6602C2.625 15.418 2.42578 15.1641 2.24219 14.9023L15.4336 1.71094C15.6953 1.89453 15.9492 2.09375 16.1914 2.30078Z" fill="white"/>
<path opacity="0.5" d="M19.1758 7.10938L7.63672 18.6484C7.28906 18.5586 6.94922 18.4492 6.61719 18.3242L18.8516 6.08984C18.9766 6.42188 19.0859 6.76172 19.1758 7.10938Z" fill="white"/>
<path opacity="0.5" d="M19.4727 9.47266C19.4727 9.53906 19.4727 9.60156 19.4688 9.66797C19.3672 4.52734 15.168 0.390625 10 0.390625C4.83203 0.390625 0.632813 4.52734 0.53125 9.66797C0.53125 9.60156 0.527344 9.53906 0.527344 9.47266C0.527344 4.24219 4.76953 0 10 0C15.2305 0 19.4727 4.24219 19.4727 9.47266Z" fill="white"/>
<path opacity="0.5" d="M17.6953 9.88281C17.6953 13.9805 14.3711 17.3047 10.2734 17.3047C7.97266 17.3047 5.91406 16.2539 4.55078 14.6094C5.90625 16.0742 7.84375 16.9922 10 16.9922C14.0977 16.9922 17.4219 13.668 17.4219 9.57031C17.4219 7.77344 16.7852 6.12891 15.7227 4.84375C16.9453 6.16797 17.6953 7.9375 17.6953 9.88281Z" fill="white"/>
<path d="M10 16.9922C14.099 16.9922 17.4219 13.6693 17.4219 9.57031C17.4219 5.47132 14.099 2.14844 10 2.14844C5.90101 2.14844 2.57812 5.47132 2.57812 9.57031C2.57812 13.6693 5.90101 16.9922 10 16.9922Z" fill="#F39E09"/>
<path d="M15.625 4.72656C14.3242 3.60547 12.6328 2.92969 10.7812 2.92969C6.68359 2.92969 3.35938 6.25391 3.35938 10.3516C3.35938 12.2031 4.03516 13.8945 5.15625 15.1953C3.57812 13.832 2.57812 11.8203 2.57812 9.57031C2.57812 5.47266 5.90234 2.14844 10 2.14844C12.2461 2.14844 14.2617 3.14844 15.625 4.72656Z" fill="#E88102"/>
<path opacity="0.25" d="M16.165 5.04297C11.3604 6.73047 7.50098 10.4375 5.61035 15.1445C5.44629 15.0234 5.28613 14.8984 5.12988 14.7617C4.00879 13.4609 3.33301 11.7695 3.33301 9.92188C3.33301 5.82422 6.65723 2.5 10.7549 2.5C12.6064 2.5 14.2979 3.17578 15.5947 4.29688C15.8018 4.53516 15.9893 4.78516 16.165 5.04297Z" fill="white"/>
<g clip-path="url(#clip1_759_6132)">
<path d="M6.33246 12.2358C6.40273 12.3916 6.51328 12.4994 6.58643 12.6335C6.6341 12.7212 6.71506 12.7921 6.7878 12.8639C6.81986 12.8954 6.87246 12.8799 6.91603 12.8799C7.72604 12.8803 8.53605 12.8803 9.34606 12.8803C10.6447 12.8803 11.9434 12.8794 13.242 12.8811C13.4578 12.8811 13.6164 13.0037 13.6649 13.2197C13.6723 13.2517 13.6723 13.2862 13.6579 13.3198C13.5671 13.5293 13.4052 13.6789 13.233 13.8171C13.0558 13.9589 12.8775 14.0996 12.6839 14.2193C12.3782 14.4083 12.0658 14.5809 11.7247 14.7035C11.5612 14.7621 11.3927 14.7961 11.2299 14.8498C11.0388 14.9126 10.8432 14.9241 10.6488 14.9577C10.2609 15.0241 9.87209 14.9983 9.48579 14.9819C9.27085 14.9728 9.044 14.9622 8.8377 14.89C8.65358 14.8257 8.4592 14.7957 8.27961 14.7121C8.18591 14.6686 8.07823 14.6469 7.98782 14.5911C7.81974 14.487 7.84439 14.316 7.8707 14.1643C7.88796 14.0627 7.98289 14.0032 8.0844 13.9553C8.21097 13.895 8.30632 13.9622 8.4144 13.9913C8.53934 14.0249 8.65564 14.0811 8.78263 14.1123C8.92811 14.1479 9.07153 14.1914 9.21907 14.2213C9.62305 14.3029 10.0278 14.3279 10.438 14.2705C10.5695 14.2521 10.7022 14.2418 10.8305 14.2062C10.9838 14.1639 11.1375 14.1242 11.2899 14.0782C11.4428 14.0327 11.5879 13.9696 11.735 13.9114C11.9035 13.8446 12.0588 13.7498 12.2179 13.6642C12.2306 13.6572 12.2425 13.6465 12.2343 13.6334C12.2286 13.6244 12.2129 13.6178 12.201 13.6166C12.1669 13.6141 12.1328 13.6146 12.0987 13.6146C10.3044 13.6146 8.51016 13.6137 6.71589 13.6158C6.56671 13.6158 6.45903 13.5711 6.35588 13.4526C6.25067 13.3313 6.14012 13.2128 6.03903 13.0877C5.89231 12.9061 5.76615 12.7101 5.64532 12.5096C5.53354 12.3243 5.44395 12.1283 5.35724 11.9316C5.30546 11.8143 5.42422 11.6167 5.54464 11.5474C5.61121 11.5093 5.68026 11.4994 5.75587 11.4994C8.44564 11.5007 11.135 11.5002 13.8247 11.5002C14.0286 11.5002 14.0154 11.497 14.0672 11.3043C14.1178 11.1149 14.1724 10.9246 14.1983 10.7323C14.2242 10.5396 14.2916 10.3506 14.2669 10.1506C14.2571 10.0698 14.262 9.98657 14.2661 9.90499C14.2772 9.66637 14.225 9.43719 14.1732 9.20719C14.1523 9.1133 14.1589 9.01736 14.1243 8.92143C14.0627 8.74923 14.0253 8.56802 13.9493 8.39951C13.9061 8.30358 13.8774 8.20108 13.8206 8.1117C13.7031 7.92803 13.6172 7.72713 13.4857 7.55002C13.3439 7.35856 13.1997 7.17078 13.0328 7.00105C12.8331 6.7981 12.6124 6.62058 12.3753 6.46191C12.1714 6.3258 11.9586 6.20526 11.7387 6.09948C11.5969 6.03143 11.4412 5.98961 11.2932 5.93467C11.1325 5.87481 10.9611 5.86251 10.8033 5.79814C10.7939 5.79445 10.7836 5.7924 10.7733 5.79076C10.3513 5.72066 9.9247 5.71943 9.5014 5.75059C9.2988 5.76575 9.09332 5.8129 8.89194 5.87194C8.72098 5.92237 8.55208 5.97772 8.38358 6.03512C8.25659 6.07858 8.13618 6.14294 8.01453 6.20198C7.79426 6.30899 7.5859 6.44059 7.39644 6.59188C7.17082 6.77186 6.94192 6.95144 6.76479 7.18882C6.6752 7.30895 6.57246 7.42128 6.48205 7.54264C6.35095 7.71852 6.24985 7.91204 6.14382 8.10309C6.06944 8.23757 6.00492 8.38188 5.96094 8.52333C5.91738 8.66395 5.85738 8.80253 5.83067 8.95218C5.81259 9.05385 5.80642 9.16168 5.7608 9.26213C5.73286 9.32321 5.75053 9.40357 5.74026 9.47409C5.70573 9.71065 5.68724 9.94845 5.69916 10.1875C5.70204 10.242 5.70286 10.2973 5.71478 10.3502C5.74272 10.4724 5.72423 10.5696 5.64368 10.6782C5.58656 10.7549 5.52697 10.7824 5.44929 10.818C5.25861 10.9066 4.98942 10.6733 4.99929 10.4781C5.01614 10.1547 5.00422 9.82955 5.00381 9.50484C5.00381 9.32198 5.05189 9.14815 5.09093 8.97145C5.1123 8.87428 5.10943 8.77137 5.15052 8.67666C5.206 8.54957 5.24135 8.41427 5.28491 8.28431C5.33299 8.1404 5.40573 8.00839 5.45258 7.86448C5.48505 7.76526 5.53971 7.67097 5.59642 7.58241C5.69094 7.43522 5.77396 7.28148 5.88039 7.14085C5.98396 7.00433 6.08629 6.86616 6.19108 6.73045C6.30657 6.58081 6.43931 6.44674 6.58068 6.32621C6.83424 6.11014 7.08904 5.89367 7.38576 5.73091C7.51275 5.66121 7.6348 5.57921 7.7659 5.51648C7.9344 5.43612 8.10453 5.35823 8.28043 5.29509C8.41029 5.24835 8.54386 5.21186 8.6729 5.16225C8.74852 5.13314 8.83564 5.12371 8.9166 5.11141C9.05674 5.0901 9.19893 5.06591 9.3362 5.04008C9.66004 4.97899 9.98264 5.00605 10.3044 5.00892C10.59 5.01179 10.8716 5.06919 11.1514 5.13847C11.3388 5.1848 11.5221 5.24179 11.7038 5.30206C11.8431 5.34839 11.9692 5.43448 12.1077 5.48532C12.3391 5.5706 12.5413 5.70631 12.746 5.8375C13.0554 6.03594 13.339 6.26922 13.5884 6.53776C13.729 6.68905 13.8708 6.84115 13.985 7.01827C14.0611 7.13634 14.1609 7.24335 14.2341 7.36553C14.3306 7.52706 14.4243 7.69188 14.5053 7.86161C14.5937 8.04692 14.6705 8.23839 14.7428 8.43067C14.7646 8.48848 14.7852 8.55203 14.7934 8.61312C14.8205 8.81155 14.8805 9.00301 14.9134 9.20104C14.9656 9.5155 14.9939 9.8275 14.9976 10.1444C15.0001 10.3281 14.9689 10.5105 14.9405 10.6872C14.913 10.8594 14.9048 11.0382 14.8509 11.2067C14.7593 11.4933 14.68 11.7852 14.546 12.0558C14.4959 12.1575 14.3939 12.2103 14.283 12.2329C14.2402 12.2415 14.1942 12.2354 14.1498 12.2354C11.5833 12.2354 9.01688 12.2354 6.44999 12.2354C6.413 12.2354 6.37602 12.2354 6.3304 12.2354L6.33246 12.2358Z" fill="#A66514" fill-opacity="0.69"/>
<path d="M13.4691 9.08127C13.4715 9.1034 13.474 9.12513 13.4765 9.14727C13.4662 9.2141 13.4662 9.27806 13.5246 9.32685C13.601 9.67985 13.5862 10.0374 13.5706 10.3932C13.5636 10.549 13.5348 10.7122 13.3618 10.788C13.2155 10.8524 12.971 10.8254 12.8851 10.6302C12.8366 10.5203 12.8444 10.424 12.8654 10.3088C12.9036 10.0952 12.913 9.87582 12.8518 9.66058C12.8255 9.56915 12.8304 9.47239 12.8095 9.3781C12.7618 9.16244 12.6817 8.95991 12.5867 8.76189C12.4182 8.41053 12.1902 8.10509 11.8984 7.84515C11.6806 7.65164 11.427 7.5147 11.1775 7.37121C11.1418 7.35071 11.0838 7.37408 11.0662 7.31627C11.007 7.23878 10.8759 7.2027 10.7781 7.23714C10.6018 7.16007 10.4144 7.13465 10.2253 7.11415C10.222 7.08586 10.206 7.07274 10.1777 7.07274C10.0453 7.07274 9.913 7.07274 9.78067 7.07274C9.75231 7.07274 9.73669 7.08627 9.733 7.11415C9.54683 7.13219 9.3582 7.15802 9.186 7.22484C8.94682 7.31709 8.70312 7.39745 8.48202 7.5434C8.30572 7.65984 8.13845 7.78489 7.98064 7.92141C7.81667 8.06286 7.69995 8.2494 7.56392 8.41791C7.44885 8.56099 7.40447 8.73442 7.32104 8.89062C7.22365 9.07225 7.16241 9.27396 7.1394 9.46993C7.10858 9.73315 7.05474 10.0009 7.11145 10.2719C7.13775 10.3977 7.16652 10.5404 7.07323 10.6544C6.9931 10.752 6.89693 10.8286 6.75186 10.8213C6.61419 10.8143 6.52008 10.7446 6.44158 10.6458C6.42555 10.6257 6.43418 10.5863 6.43131 10.556C6.43131 10.4412 6.43213 10.3264 6.43131 10.2116C6.43131 10.1768 6.44364 10.1329 6.38816 10.1247C6.37994 10.0435 6.37953 9.96192 6.38816 9.88074C6.44364 9.87254 6.4309 9.82908 6.43131 9.79423C6.43213 9.67329 6.43172 9.55193 6.43172 9.43098C6.43336 9.39614 6.43501 9.36129 6.43706 9.32644C6.48802 9.29159 6.49007 9.24116 6.48186 9.18704C6.48432 9.1649 6.48638 9.14317 6.48884 9.12103C6.56158 9.09193 6.52542 9.02797 6.53446 8.97836C6.52706 8.83937 6.60514 8.7254 6.64994 8.60281C6.69515 8.47899 6.76008 8.36092 6.82789 8.24735C6.93063 8.07516 7.02104 7.89435 7.17392 7.75455C7.23104 7.70207 7.26598 7.62417 7.31899 7.56144C7.39913 7.46715 7.50105 7.39704 7.57749 7.29823C7.62721 7.23427 7.70941 7.19614 7.77516 7.14408C7.92598 7.02518 8.08749 6.91817 8.25887 6.82839C8.26996 6.82265 8.28558 6.82593 8.29914 6.82511C8.33202 6.82757 8.36079 6.82429 8.35996 6.78083C8.37599 6.7755 8.39202 6.77017 8.40805 6.76484C8.44175 6.75623 8.49229 6.78657 8.50298 6.72425C8.52681 6.65168 8.6049 6.67464 8.6538 6.64717C8.72284 6.60904 8.80134 6.56066 8.89216 6.57911C9.01422 6.60043 9.11038 6.49917 9.22997 6.50655C9.23326 6.50655 9.23778 6.48933 9.24148 6.4799C9.56162 6.3938 9.88793 6.35977 10.2171 6.38724C10.4246 6.40446 10.6359 6.42947 10.8352 6.48646C11.2129 6.59469 11.5774 6.73491 11.9111 6.95466C12.1293 7.09857 12.3241 7.26707 12.5243 7.43066C12.5337 7.43845 12.5366 7.45444 12.5423 7.46633C12.5991 7.57948 12.6891 7.66804 12.7663 7.76562C12.793 7.79965 12.8202 7.84515 12.874 7.85089C12.8789 7.86196 12.8839 7.87262 12.8888 7.88369C12.895 7.91198 12.8839 7.95216 12.934 7.95134C13.003 7.99029 13.0339 8.06532 13.0684 8.12559C13.1798 8.32074 13.2809 8.52245 13.368 8.7295C13.3996 8.80452 13.4498 8.88693 13.4243 8.97959C13.4346 9.01526 13.3976 9.07184 13.4691 9.08045V9.08127Z" fill="#A66514"/>
<path d="M7.80887 9.63551C7.81216 9.60107 7.81503 9.56663 7.81832 9.53219C7.89805 9.52359 7.85736 9.46291 7.86517 9.42355C7.86558 9.41207 7.8664 9.40059 7.86681 9.3887C7.94325 9.36041 7.89394 9.29481 7.90873 9.24807C7.93873 9.11975 8.00038 9.00372 8.06572 8.89179C8.18654 8.68475 8.32463 8.4896 8.52066 8.34405C8.54614 8.34364 8.56422 8.33421 8.56422 8.3051L8.56956 8.30305C8.68258 8.27353 8.76272 8.19318 8.84943 8.12307C8.85313 8.1202 8.85066 8.11036 8.85107 8.10339C8.97601 8.00458 9.12971 7.96645 9.27272 7.90537C9.48889 7.81271 9.72068 7.7918 9.94588 7.7877C10.1193 7.78442 10.301 7.79385 10.4773 7.841C10.5997 7.8738 10.721 7.91028 10.8364 7.95866C10.9893 8.02303 11.1389 8.09478 11.2647 8.21286C11.3321 8.2764 11.4282 8.31207 11.4965 8.38013C11.683 8.56626 11.8359 8.7729 11.96 9.00946C12.034 9.15091 12.0792 9.30055 12.1339 9.44528C12.17 9.54121 12.1939 9.65806 12.1943 9.76958C12.1951 9.9266 12.1902 10.084 12.1963 10.2407C12.1996 10.3255 12.1413 10.3923 12.145 10.4748C12.0751 10.5043 12.094 10.5662 12.0919 10.6207C12.0291 10.7917 11.7808 10.8802 11.6181 10.7904C11.4282 10.6855 11.3756 10.5334 11.4471 10.3206C11.4628 10.2739 11.4566 10.2193 11.4574 10.1685C11.4607 9.95161 11.4829 9.73186 11.4052 9.52358C11.3621 9.40797 11.3054 9.2944 11.238 9.19109C11.0921 8.96764 10.8977 8.79463 10.6573 8.67409C10.5196 8.6048 10.3749 8.55683 10.2249 8.52322C10.2134 8.47566 10.1793 8.48878 10.1481 8.49411C10.0305 8.49862 9.9126 8.50313 9.79506 8.50805C9.73218 8.48468 9.67588 8.49042 9.63026 8.54413C9.50985 8.58758 9.38081 8.61587 9.27231 8.67942C9.17902 8.73395 9.08286 8.79586 9.00436 8.87089C8.84368 9.02463 8.69326 9.19437 8.61025 9.40223C8.54573 9.56458 8.47997 9.73227 8.49806 9.91676C8.51408 10.0795 8.47258 10.2456 8.54285 10.4071C8.58025 10.4932 8.496 10.7072 8.42079 10.7511C8.29504 10.8245 8.15942 10.8524 8.02421 10.7851C7.98394 10.765 7.90462 10.7757 7.90955 10.6933C7.90545 10.6625 7.91736 10.6228 7.86681 10.6183C7.86599 10.6068 7.86558 10.5953 7.86476 10.5838C7.85695 10.544 7.89805 10.483 7.8175 10.4752C7.81627 10.4534 7.81503 10.4321 7.8138 10.4104C7.83517 10.3792 7.83106 10.3427 7.82407 10.3112C7.78627 10.139 7.81791 9.96473 7.80394 9.79213C7.79983 9.73883 7.85366 9.68922 7.80887 9.63633V9.63551Z" fill="#A66514"/>
<path d="M7.80878 9.63574C7.85357 9.68863 7.79973 9.73865 7.80384 9.79154C7.81782 9.96414 7.78617 10.1384 7.82398 10.3106C7.83097 10.3422 7.83549 10.3786 7.81371 10.4098C7.78288 10.3946 7.77138 10.3684 7.76973 10.3352C7.76028 10.1187 7.76069 9.90182 7.76891 9.68535C7.76973 9.6587 7.7796 9.63984 7.80836 9.63615L7.80878 9.63574Z" fill="#A66514"/>
<path d="M12.8736 7.85185C12.8202 7.84611 12.7931 7.8006 12.766 7.76658C12.6887 7.669 12.5987 7.58044 12.542 7.46729C12.6788 7.57306 12.7754 7.71287 12.8732 7.85185H12.8736Z" fill="#A66514"/>
<path d="M6.43188 9.43164C6.43188 9.55259 6.43229 9.67394 6.43147 9.79489C6.43147 9.82974 6.4438 9.8732 6.38832 9.8814C6.37188 9.74897 6.3916 9.61695 6.39407 9.48453C6.39448 9.4587 6.40393 9.4382 6.43188 9.43164Z" fill="#A66514"/>
<path d="M6.38816 10.1255C6.44405 10.1337 6.43131 10.1776 6.43131 10.2124C6.43213 10.3272 6.43131 10.442 6.43131 10.5568C6.40254 10.5523 6.39227 10.5322 6.39268 10.5068C6.39268 10.3797 6.37131 10.2526 6.38857 10.1255H6.38816Z" fill="#A66514"/>
<path d="M9.7334 7.11466C9.73669 7.08678 9.7523 7.07284 9.78107 7.07325C9.9134 7.07325 10.0457 7.07325 10.1781 7.07325C10.2064 7.07325 10.2224 7.08637 10.2257 7.11466C10.0618 7.11466 9.89737 7.11466 9.7334 7.11466Z" fill="#A66514"/>
<path d="M9.2419 6.48095C9.2382 6.49038 9.23368 6.5076 9.23039 6.5076C9.1108 6.50022 9.01463 6.60189 8.89258 6.58016C8.90162 6.56294 8.90203 6.53507 8.92751 6.53507C9.036 6.53589 9.1297 6.45512 9.2419 6.48054V6.48095Z" fill="#A66514"/>
<path d="M8.85182 8.104C8.85141 8.11056 8.85347 8.12081 8.85018 8.12368C8.76347 8.19379 8.68333 8.27415 8.57031 8.30367C8.64922 8.21593 8.73963 8.145 8.85223 8.104H8.85182Z" fill="#A66514"/>
<path d="M10.7783 7.23768C10.8757 7.20324 11.0068 7.23932 11.0664 7.31681C10.9645 7.31271 10.87 7.27991 10.7783 7.23768Z" fill="#A66514"/>
<path d="M13.524 9.32704C13.4656 9.27866 13.4656 9.2147 13.4759 9.14746C13.5568 9.18969 13.5162 9.26513 13.524 9.32704Z" fill="#A66514"/>
<path d="M6.53478 8.97949C6.52574 9.0291 6.56191 9.09306 6.48916 9.12217C6.48218 9.06764 6.46615 9.01024 6.53478 8.97949Z" fill="#A66514"/>
<path d="M12.0927 10.6206C12.0947 10.5664 12.0758 10.5045 12.1457 10.4746C12.1457 10.5295 12.1691 10.5931 12.0927 10.6206Z" fill="#A66514"/>
<path d="M9.63086 8.54375C9.67648 8.49004 9.73278 8.4843 9.79566 8.50767C9.75209 8.57163 9.68716 8.5376 9.63086 8.54375Z" fill="#A66514"/>
<path d="M6.48237 9.1875C6.49059 9.24121 6.48853 9.29205 6.43757 9.3269C6.44209 9.27729 6.41086 9.21579 6.48237 9.1875Z" fill="#A66514"/>
<path d="M7.90838 9.24805C7.89359 9.29479 7.9429 9.36038 7.86646 9.38867C7.86235 9.3366 7.84551 9.28044 7.90838 9.24805Z" fill="#A66514"/>
<path d="M7.86546 9.42383C7.85806 9.4636 7.89875 9.52387 7.81861 9.53247C7.80833 9.48533 7.80875 9.44228 7.86546 9.42383Z" fill="#A66514"/>
<path d="M13.4683 9.08133C13.3968 9.07272 13.4338 9.01614 13.4235 8.98047C13.465 9.0022 13.4864 9.03295 13.4683 9.08133Z" fill="#A66514"/>
<path d="M7.81829 10.4746C7.89884 10.4828 7.85816 10.5435 7.86555 10.5833C7.81747 10.5611 7.80309 10.5242 7.81829 10.4746Z" fill="#A66514"/>
<path d="M8.50314 6.72523C8.49245 6.78796 8.4419 6.75762 8.4082 6.76582C8.41683 6.69859 8.47067 6.73671 8.50314 6.72523Z" fill="#A66514"/>
<path d="M7.8674 10.6177C7.91795 10.6222 7.90603 10.662 7.91014 10.6927C7.87521 10.6792 7.85384 10.6583 7.8674 10.6177Z" fill="#A66514"/>
<path d="M8.35965 6.78228C8.36047 6.82573 8.33171 6.82901 8.29883 6.82655C8.30992 6.7995 8.31527 6.76424 8.35965 6.78228Z" fill="#A66514"/>
<path d="M12.9339 7.9529C12.8837 7.95372 12.8948 7.91354 12.8887 7.88525C12.9289 7.89099 12.9376 7.91805 12.9339 7.9529Z" fill="#A66514"/>
<path d="M8.56517 8.30518C8.56517 8.33428 8.54709 8.3433 8.52161 8.34412C8.51956 8.31215 8.54257 8.30887 8.56517 8.30518Z" fill="#A66514"/>
<path d="M10.1484 8.49373C10.1797 8.48799 10.2138 8.47529 10.2253 8.52284C10.1904 8.53801 10.1608 8.53842 10.1484 8.49373Z" fill="#A66514"/>
</g>
<g clip-path="url(#clip2_759_6132)">
<path d="M6.33246 11.4023C6.40273 11.5581 6.51328 11.6659 6.58643 11.8C6.6341 11.8877 6.71506 11.9586 6.7878 12.0304C6.81986 12.0619 6.87246 12.0464 6.91603 12.0464C7.72604 12.0468 8.53605 12.0468 9.34606 12.0468C10.6447 12.0468 11.9434 12.0459 13.242 12.0476C13.4578 12.0476 13.6164 12.1702 13.6649 12.3862C13.6723 12.4182 13.6723 12.4527 13.6579 12.4863C13.5671 12.6958 13.4052 12.8454 13.233 12.9836C13.0558 13.1254 12.8775 13.2661 12.6839 13.3858C12.3782 13.5748 12.0658 13.7474 11.7247 13.87C11.5612 13.9286 11.3927 13.9626 11.2299 14.0163C11.0388 14.0791 10.8432 14.0906 10.6488 14.1242C10.2609 14.1906 9.87209 14.1648 9.48579 14.1484C9.27085 14.1393 9.044 14.1287 8.8377 14.0565C8.65358 13.9922 8.4592 13.9622 8.27961 13.8786C8.18591 13.8351 8.07823 13.8134 7.98782 13.7576C7.81974 13.6535 7.84439 13.4825 7.8707 13.3308C7.88796 13.2292 7.98289 13.1697 8.0844 13.1218C8.21097 13.0615 8.30632 13.1287 8.4144 13.1578C8.53934 13.1915 8.65564 13.2476 8.78263 13.2788C8.92811 13.3144 9.07153 13.3579 9.21907 13.3878C9.62305 13.4694 10.0278 13.4944 10.438 13.437C10.5695 13.4186 10.7022 13.4083 10.8305 13.3727C10.9838 13.3304 11.1375 13.2907 11.2899 13.2448C11.4428 13.1992 11.5879 13.1361 11.735 13.0779C11.9035 13.0111 12.0588 12.9164 12.2179 12.8307C12.2306 12.8237 12.2425 12.813 12.2343 12.7999C12.2286 12.7909 12.2129 12.7843 12.201 12.7831C12.1669 12.7806 12.1328 12.7811 12.0987 12.7811C10.3044 12.7811 8.51016 12.7802 6.71589 12.7823C6.56671 12.7823 6.45903 12.7376 6.35588 12.6191C6.25067 12.4978 6.14012 12.3793 6.03903 12.2542C5.89231 12.0726 5.76615 11.8766 5.64532 11.6761C5.53354 11.4908 5.44395 11.2949 5.35724 11.0981C5.30546 10.9808 5.42422 10.7832 5.54464 10.7139C5.61121 10.6758 5.68026 10.6659 5.75587 10.6659C8.44564 10.6672 11.135 10.6668 13.8247 10.6668C14.0286 10.6668 14.0154 10.6635 14.0672 10.4708C14.1178 10.2814 14.1724 10.0911 14.1983 9.89884C14.2242 9.70615 14.2916 9.51715 14.2669 9.31707C14.2571 9.23631 14.262 9.15308 14.2661 9.07149C14.2772 8.83288 14.225 8.60369 14.1732 8.37369C14.1523 8.27981 14.1589 8.18387 14.1243 8.08793C14.0627 7.91574 14.0253 7.73452 13.9493 7.56602C13.9061 7.47008 13.8774 7.36758 13.8206 7.27821C13.7031 7.09453 13.6172 6.89364 13.4857 6.71652C13.3439 6.52506 13.1997 6.33729 13.0328 6.16755C12.8331 5.96461 12.6124 5.78708 12.3753 5.62842C12.1714 5.4923 11.9586 5.37177 11.7387 5.26599C11.5969 5.19793 11.4412 5.15611 11.2932 5.10117C11.1325 5.04132 10.9611 5.02902 10.8033 4.96465C10.7939 4.96096 10.7836 4.95891 10.7733 4.95727C10.3513 4.88716 9.9247 4.88593 9.5014 4.91709C9.2988 4.93226 9.09332 4.97941 8.89194 5.03845C8.72098 5.08887 8.55208 5.14422 8.38358 5.20162C8.25659 5.24508 8.13618 5.30945 8.01453 5.36849C7.79426 5.47549 7.5859 5.6071 7.39644 5.75838C7.17082 5.93837 6.94192 6.11794 6.76479 6.35532C6.6752 6.47545 6.57246 6.58779 6.48205 6.70914C6.35095 6.88503 6.24985 7.07854 6.14382 7.2696C6.06944 7.40407 6.00492 7.54839 5.96094 7.68983C5.91738 7.83046 5.85738 7.96903 5.83067 8.11868C5.81259 8.22036 5.80642 8.32818 5.7608 8.42863C5.73286 8.48972 5.75053 8.57008 5.74026 8.64059C5.70573 8.87716 5.68724 9.11495 5.69916 9.35397C5.70204 9.4085 5.70286 9.46385 5.71478 9.51674C5.74272 9.63891 5.72423 9.73608 5.64368 9.84473C5.58656 9.92139 5.52697 9.94886 5.44929 9.98453C5.25861 10.0731 4.98942 9.83981 4.99929 9.64465C5.01614 9.32117 5.00422 8.99605 5.00381 8.67134C5.00381 8.48849 5.05189 8.31465 5.09093 8.13795C5.1123 8.04078 5.10943 7.93788 5.15052 7.84317C5.206 7.71607 5.24135 7.58078 5.28491 7.45081C5.33299 7.30691 5.40573 7.17489 5.45258 7.03098C5.48505 6.93177 5.53971 6.83747 5.59642 6.74891C5.69094 6.60173 5.77396 6.44798 5.88039 6.30736C5.98396 6.17083 6.08629 6.03266 6.19108 5.89696C6.30657 5.74731 6.43931 5.61325 6.58068 5.49271C6.83424 5.27665 7.08904 5.06017 7.38576 4.89741C7.51275 4.82771 7.6348 4.74571 7.7659 4.68299C7.9344 4.60263 8.10453 4.52473 8.28043 4.46159C8.41029 4.41485 8.54386 4.37837 8.6729 4.32876C8.74852 4.29965 8.83564 4.29022 8.9166 4.27792C9.05674 4.2566 9.19893 4.23241 9.3362 4.20658C9.66004 4.14549 9.98264 4.17255 10.3044 4.17542C10.59 4.17829 10.8716 4.23569 11.1514 4.30498C11.3388 4.35131 11.5221 4.40829 11.7038 4.46856C11.8431 4.51489 11.9692 4.60099 12.1077 4.65183C12.3391 4.7371 12.5413 4.87281 12.746 5.00401C13.0554 5.20244 13.339 5.43572 13.5884 5.70426C13.729 5.85555 13.8708 6.00766 13.985 6.18477C14.0611 6.30285 14.1609 6.40985 14.2341 6.53203C14.3306 6.69356 14.4243 6.85838 14.5053 7.02811C14.5937 7.21343 14.6705 7.40489 14.7428 7.59718C14.7646 7.65498 14.7852 7.71853 14.7934 7.77962C14.8205 7.97805 14.8805 8.16952 14.9134 8.36754C14.9656 8.682 14.9939 8.994 14.9976 9.31092C15.0001 9.4946 14.9689 9.67704 14.9405 9.85375C14.913 10.0259 14.9048 10.2047 14.8509 10.3732C14.7593 10.6598 14.68 10.9517 14.546 11.2223C14.4959 11.324 14.3939 11.3768 14.283 11.3994C14.2402 11.408 14.1942 11.4019 14.1498 11.4019C11.5833 11.4019 9.01688 11.4019 6.44999 11.4019C6.413 11.4019 6.37602 11.4019 6.3304 11.4019L6.33246 11.4023Z" fill="#FDD835"/>
<path d="M13.4691 8.24777C13.4715 8.26991 13.474 8.29164 13.4765 8.31378C13.4662 8.38061 13.4662 8.44456 13.5246 8.49335C13.601 8.84635 13.5862 9.20386 13.5706 9.55973C13.5636 9.71552 13.5348 9.8787 13.3618 9.95455C13.2155 10.0189 12.971 9.99186 12.8851 9.7967C12.8366 9.68682 12.8444 9.59048 12.8654 9.47527C12.9036 9.26167 12.913 9.04232 12.8518 8.82708C12.8255 8.73565 12.8304 8.6389 12.8095 8.5446C12.7618 8.32895 12.6817 8.12641 12.5867 7.92839C12.4182 7.57703 12.1902 7.27159 11.8984 7.01166C11.6806 6.81814 11.427 6.68121 11.1775 6.53771C11.1418 6.51721 11.0838 6.54058 11.0662 6.48277C11.007 6.40529 10.8759 6.36921 10.7781 6.40365C10.6018 6.32657 10.4144 6.30115 10.2253 6.28065C10.222 6.25236 10.206 6.23924 10.1777 6.23924C10.0453 6.23924 9.913 6.23924 9.78067 6.23924C9.75231 6.23924 9.73669 6.25277 9.733 6.28065C9.54683 6.29869 9.3582 6.32452 9.186 6.39135C8.94682 6.48359 8.70312 6.56395 8.48202 6.70991C8.30572 6.82634 8.13845 6.95139 7.98064 7.08792C7.81667 7.22936 7.69995 7.41591 7.56392 7.58441C7.44885 7.7275 7.40447 7.90092 7.32104 8.05713C7.22365 8.23875 7.16241 8.44046 7.1394 8.63644C7.10858 8.89965 7.05474 9.16737 7.11145 9.43837C7.13775 9.56424 7.16652 9.70691 7.07323 9.82089C6.9931 9.91847 6.89693 9.99514 6.75186 9.98776C6.61419 9.98079 6.52008 9.91109 6.44158 9.81228C6.42555 9.79219 6.43418 9.75283 6.43131 9.72249C6.43131 9.6077 6.43213 9.4929 6.43131 9.3781C6.43131 9.34326 6.44364 9.29939 6.38816 9.29119C6.37994 9.21001 6.37953 9.12842 6.38816 9.04724C6.44364 9.03905 6.4309 8.99559 6.43131 8.96074C6.43213 8.83979 6.43172 8.71844 6.43172 8.59749C6.43336 8.56264 6.43501 8.52779 6.43706 8.49294C6.48802 8.45809 6.49007 8.40766 6.48186 8.35355C6.48432 8.33141 6.48638 8.30968 6.48884 8.28754C6.56158 8.25843 6.52542 8.19447 6.53446 8.14486C6.52706 8.00588 6.60514 7.8919 6.64994 7.76931C6.69515 7.6455 6.76008 7.52742 6.82789 7.41386C6.93063 7.24166 7.02104 7.06086 7.17392 6.92105C7.23104 6.86857 7.26598 6.79068 7.31899 6.72795C7.39913 6.63365 7.50105 6.56354 7.57749 6.46474C7.62721 6.40078 7.70941 6.36265 7.77516 6.31058C7.92598 6.19168 8.08749 6.08468 8.25887 5.99489C8.26996 5.98915 8.28558 5.99243 8.29914 5.99161C8.33202 5.99407 8.36079 5.99079 8.35996 5.94733C8.37599 5.942 8.39202 5.93667 8.40805 5.93134C8.44175 5.92273 8.49229 5.95307 8.50298 5.89075C8.52681 5.81819 8.6049 5.84114 8.6538 5.81368C8.72284 5.77555 8.80134 5.72717 8.89216 5.74562C9.01422 5.76694 9.11038 5.66567 9.22997 5.67305C9.23326 5.67305 9.23778 5.65583 9.24148 5.6464C9.56162 5.5603 9.88793 5.52627 10.2171 5.55374C10.4246 5.57096 10.6359 5.59597 10.8352 5.65296C11.2129 5.7612 11.5774 5.90141 11.9111 6.12117C12.1293 6.26507 12.3241 6.43358 12.5243 6.59716C12.5337 6.60495 12.5366 6.62094 12.5423 6.63283C12.5991 6.74599 12.6891 6.83454 12.7663 6.93212C12.793 6.96615 12.8202 7.01166 12.874 7.0174C12.8789 7.02847 12.8839 7.03913 12.8888 7.0502C12.895 7.07849 12.8839 7.11866 12.934 7.11784C13.003 7.15679 13.0339 7.23182 13.0684 7.29209C13.1798 7.48724 13.2809 7.68896 13.368 7.896C13.3996 7.97103 13.4498 8.05344 13.4243 8.14609C13.4346 8.18176 13.3976 8.23834 13.4691 8.24695V8.24777Z" fill="#FEEB9A"/>
<path d="M7.80887 8.80202C7.81216 8.76758 7.81503 8.73314 7.81832 8.6987C7.89805 8.69009 7.85736 8.62941 7.86517 8.59005C7.86558 8.57857 7.8664 8.56709 7.86681 8.5552C7.94325 8.52691 7.89394 8.46132 7.90873 8.41458C7.93873 8.28625 8.00038 8.17022 8.06572 8.0583C8.18654 7.85125 8.32463 7.6561 8.52066 7.51056C8.54614 7.51015 8.56422 7.50072 8.56422 7.47161L8.56956 7.46956C8.68258 7.44004 8.76272 7.35968 8.84943 7.28957C8.85313 7.2867 8.85066 7.27686 8.85107 7.26989C8.97601 7.17109 9.12971 7.13296 9.27272 7.07187C9.48889 6.97921 9.72068 6.9583 9.94588 6.9542C10.1193 6.95092 10.301 6.96035 10.4773 7.0075C10.5997 7.0403 10.721 7.07679 10.8364 7.12517C10.9893 7.18954 11.1389 7.26128 11.2647 7.37936C11.3321 7.44291 11.4282 7.47858 11.4965 7.54663C11.683 7.73277 11.8359 7.9394 11.96 8.17596C12.034 8.31741 12.0792 8.46706 12.1339 8.61178C12.17 8.70772 12.1939 8.82456 12.1943 8.93608C12.1951 9.09311 12.1902 9.25054 12.1963 9.40716C12.1996 9.49202 12.1413 9.55885 12.145 9.64126C12.0751 9.67078 12.094 9.73269 12.0919 9.78722C12.0291 9.95818 11.7808 10.0467 11.6181 9.95695C11.4282 9.85199 11.3756 9.69989 11.4471 9.4871C11.4628 9.44037 11.4566 9.38584 11.4574 9.335C11.4607 9.11812 11.4829 8.89836 11.4052 8.69009C11.3621 8.57447 11.3054 8.46091 11.238 8.35759C11.0921 8.13415 10.8977 7.96113 10.6573 7.8406C10.5196 7.77131 10.3749 7.72334 10.2249 7.68972C10.2134 7.64216 10.1793 7.65528 10.1481 7.66061C10.0305 7.66512 9.9126 7.66963 9.79506 7.67455C9.73218 7.65118 9.67588 7.65692 9.63026 7.71063C9.50985 7.75409 9.38081 7.78238 9.27231 7.84592C9.17902 7.90045 9.08286 7.96236 9.00436 8.03739C8.84368 8.19113 8.69326 8.36087 8.61025 8.56873C8.54573 8.73109 8.47997 8.89877 8.49806 9.08327C8.51408 9.24603 8.47258 9.41208 8.54285 9.57361C8.58025 9.65971 8.496 9.87372 8.42079 9.91759C8.29504 9.99098 8.15942 10.0189 8.02421 9.95162C7.98394 9.93153 7.90462 9.94219 7.90955 9.85978C7.90545 9.82903 7.91736 9.78926 7.86681 9.78475C7.86599 9.77328 7.86558 9.7618 7.86476 9.75032C7.85695 9.71055 7.89805 9.64946 7.8175 9.64167C7.81627 9.61994 7.81503 9.59862 7.8138 9.57689C7.83517 9.54573 7.83106 9.50924 7.82407 9.47767C7.78627 9.30548 7.81791 9.13124 7.80394 8.95863C7.79983 8.90533 7.85366 8.85572 7.80887 8.80284V8.80202Z" fill="#FEEB9A"/>
<path d="M7.80878 8.80225C7.85357 8.85513 7.79973 8.90515 7.80384 8.95804C7.81782 9.13065 7.78617 9.30489 7.82398 9.47709C7.83097 9.50865 7.83549 9.54514 7.81371 9.5763C7.78288 9.56113 7.77138 9.53489 7.76973 9.50168C7.76028 9.28521 7.76069 9.06833 7.76891 8.85185C7.76973 8.82521 7.7796 8.80635 7.80836 8.80266L7.80878 8.80225Z" fill="#FDD835"/>
<path d="M12.8736 7.01836C12.8202 7.01262 12.7931 6.96711 12.766 6.93308C12.6887 6.8355 12.5987 6.74695 12.542 6.63379C12.6788 6.73957 12.7754 6.87937 12.8732 7.01836H12.8736Z" fill="#FDD835"/>
<path d="M6.43188 8.59814C6.43188 8.71909 6.43229 8.84045 6.43147 8.96139C6.43147 8.99624 6.4438 9.0397 6.38832 9.0479C6.37188 8.91547 6.3916 8.78346 6.39407 8.65103C6.39448 8.6252 6.40393 8.6047 6.43188 8.59814Z" fill="#FDD835"/>
<path d="M6.38816 9.29199C6.44405 9.30019 6.43131 9.34406 6.43131 9.37891C6.43213 9.49371 6.43131 9.6085 6.43131 9.7233C6.40254 9.71879 6.39227 9.6987 6.39268 9.67328C6.39268 9.54618 6.37131 9.41909 6.38857 9.29199H6.38816Z" fill="#FDD835"/>
<path d="M9.7334 6.28116C9.73669 6.25328 9.7523 6.23934 9.78107 6.23975C9.9134 6.23975 10.0457 6.23975 10.1781 6.23975C10.2064 6.23975 10.2224 6.25287 10.2257 6.28116C10.0618 6.28116 9.89737 6.28116 9.7334 6.28116Z" fill="#FDD835"/>
<path d="M9.2419 5.64745C9.2382 5.65688 9.23368 5.6741 9.23039 5.6741C9.1108 5.66672 9.01463 5.7684 8.89258 5.74667C8.90162 5.72945 8.90203 5.70157 8.92751 5.70157C9.036 5.70239 9.1297 5.62162 9.2419 5.64704V5.64745Z" fill="#FDD835"/>
<path d="M8.85182 7.27051C8.85141 7.27707 8.85347 7.28732 8.85018 7.29019C8.76347 7.3603 8.68333 7.44065 8.57031 7.47017C8.64922 7.38243 8.73963 7.31151 8.85223 7.27051H8.85182Z" fill="#FDD835"/>
<path d="M10.7783 6.40419C10.8757 6.36975 11.0068 6.40583 11.0664 6.48331C10.9645 6.47921 10.87 6.44642 10.7783 6.40419Z" fill="#FDD835"/>
<path d="M13.524 8.49354C13.4656 8.44516 13.4656 8.3812 13.4759 8.31396C13.5568 8.35619 13.5162 8.43163 13.524 8.49354Z" fill="#FDD835"/>
<path d="M6.53478 8.146C6.52574 8.1956 6.56191 8.25956 6.48916 8.28867C6.48218 8.23414 6.46615 8.17675 6.53478 8.146Z" fill="#FDD835"/>
<path d="M12.0927 9.78707C12.0947 9.73295 12.0758 9.67104 12.1457 9.64111C12.1457 9.69605 12.1691 9.7596 12.0927 9.78707Z" fill="#FDD835"/>
<path d="M9.63086 7.71025C9.67648 7.65654 9.73278 7.6508 9.79566 7.67417C9.75209 7.73813 9.68716 7.7041 9.63086 7.71025Z" fill="#FDD835"/>
<path d="M6.48237 8.354C6.49059 8.40771 6.48853 8.45855 6.43757 8.4934C6.44209 8.44379 6.41086 8.38229 6.48237 8.354Z" fill="#FDD835"/>
<path d="M7.90838 8.41455C7.89359 8.46129 7.9429 8.52689 7.86646 8.55518C7.86235 8.50311 7.84551 8.44694 7.90838 8.41455Z" fill="#FDD835"/>
<path d="M7.86546 8.59033C7.85806 8.6301 7.89875 8.69037 7.81861 8.69898C7.80833 8.65183 7.80875 8.60878 7.86546 8.59033Z" fill="#FDD835"/>
<path d="M13.4683 8.24783C13.3968 8.23922 13.4338 8.18264 13.4235 8.14697C13.465 8.1687 13.4864 8.19945 13.4683 8.24783Z" fill="#FDD835"/>
<path d="M7.81829 9.64111C7.89884 9.64931 7.85816 9.70999 7.86555 9.74976C7.81747 9.72762 7.80309 9.69072 7.81829 9.64111Z" fill="#FDD835"/>
<path d="M8.50314 5.89174C8.49245 5.95447 8.4419 5.92413 8.4082 5.93233C8.41683 5.86509 8.47067 5.90322 8.50314 5.89174Z" fill="#FDD835"/>
<path d="M7.8674 9.78418C7.91795 9.78869 7.90603 9.82846 7.91014 9.85921C7.87521 9.84568 7.85384 9.82477 7.8674 9.78418Z" fill="#FDD835"/>
<path d="M8.35965 5.94878C8.36047 5.99224 8.33171 5.99552 8.29883 5.99306C8.30992 5.966 8.31527 5.93074 8.35965 5.94878Z" fill="#FDD835"/>
<path d="M12.9339 7.11941C12.8837 7.12023 12.8948 7.08005 12.8887 7.05176C12.9289 7.0575 12.9376 7.08456 12.9339 7.11941Z" fill="#FDD835"/>
<path d="M8.56517 7.47168C8.56517 7.50079 8.54709 7.50981 8.52161 7.51063C8.51956 7.47865 8.54257 7.47537 8.56517 7.47168Z" fill="#FDD835"/>
<path d="M10.1484 7.66024C10.1797 7.6545 10.2138 7.64179 10.2253 7.68935C10.1904 7.70452 10.1608 7.70493 10.1484 7.66024Z" fill="#FDD835"/>
</g>
</g>
<defs>
<clipPath id="clip0_759_6132">
<rect width="20" height="20" fill="white"/>
</clipPath>
<clipPath id="clip1_759_6132">
<rect width="10" height="10" fill="white" transform="translate(5 5)"/>
</clipPath>
<clipPath id="clip2_759_6132">
<rect width="10" height="10" fill="white" transform="translate(5 4.1665)"/>
</clipPath>
</defs>
</svg>
